M48
; DRILL file {KiCad 8.0.4} date 2024-07-31T14:07:20-0400
; FORMAT={-:-/ absolute / inch / decimal}
; #@! TF.CreationDate,2024-07-31T14:07:20-04:00
; #@! TF.GenerationSoftware,Kicad,Pcbnew,8.0.4
; #@! TF.FileFunction,Plated,1,2,PTH
FMAT,2
INCH
; #@! TA.AperFunction,Plated,PTH,ViaDrill
T1C0.0118
; #@! TA.AperFunction,Plated,PTH,ComponentDrill
T2C0.0236
; #@! TA.AperFunction,Plated,PTH,ComponentDrill
T3C0.0394
%
G90
G05
T1
X1.5354Y-1.3976
X1.5442Y-1.2686
X1.5945Y-1.4567
X1.6082Y-1.4036
X1.6389Y-1.38
X1.6732Y-1.4764
X1.6732Y-1.7717
X1.752Y-2.1457
X1.811Y-1.4272
X1.8504Y-2.0669
X1.9488Y-2.0079
X1.9882Y-2.126
X2.0079Y-1.9291
X2.0472Y-1.437
X2.0472Y-1.7717
X2.126Y-1.5945
X2.1654Y-1.5748
X2.2835Y-2.2441
X2.3622Y-1.9291
X2.4016Y-1.3189
X2.4016Y-1.3854
X2.5384Y-1.7923
X2.5591Y-2.126
X2.5787Y-1.9055
X2.5984Y-1.6732
X2.5984Y-1.8157
X2.6181Y-2.0079
X2.6181Y-2.126
X2.6181Y-2.1654
X2.6208Y-1.6967
X2.6289Y-1.937
X2.6429Y-1.6485
X2.6693Y-2.2508
X2.6891Y-1.6613
X2.6969Y-2.185
X2.7362Y-1.9488
X2.7559Y-1.8898
X2.8021Y-1.6467
X2.8187Y-1.5908
X2.8189Y-2.0512
X2.8409Y-1.5672
X2.8543Y-2.0512
X2.8543Y-2.2638
X2.874Y-2.1654
X2.8937Y-2.2661
X2.9006Y-2.0601
X2.9331Y-1.8898
X2.9331Y-2.0079
X3.0118Y-1.9843
X3.0195Y-1.8777
X3.0464Y-1.8614
X3.0472Y-1.9168
X3.0489Y-1.9783
X3.0559Y-1.9476
X3.0906Y-1.9488
X3.1372Y-1.9758
X3.189Y-2.5787
X3.248Y-2.3819
T3
X2.6087Y-1.122
X2.7087Y-1.122
X2.8087Y-1.122
X2.9087Y-1.122
X3.0087Y-1.122
X3.1087Y-1.122
X3.2087Y-1.122
X3.2874Y-2.4819
X3.2874Y-2.5819
X3.3087Y-1.122
T2
G00X1.4441Y-1.1348
M15
G01X1.4441Y-1.1033
M16
G05
G00X1.4441Y-1.3061
M15
G01X1.4441Y-1.2628
M16
G05
G00X1.7843Y-1.1348
M15
G01X1.7843Y-1.1033
M16
G05
G00X1.7843Y-1.3061
M15
G01X1.7843Y-1.2628
M16
G05
M30
