%TF.GenerationSoftware,KiCad,Pcbnew,8.0.4*%
%TF.CreationDate,2024-07-31T14:07:18-04:00*%
%TF.ProjectId,board,626f6172-642e-46b6-9963-61645f706362,rev?*%
%TF.SameCoordinates,Original*%
%TF.FileFunction,Paste,Top*%
%TF.FilePolarity,Positive*%
%FSLAX46Y46*%
G04 Gerber Fmt 4.6, Leading zero omitted, Abs format (unit mm)*
G04 Created by KiCad (PCBNEW 8.0.4) date 2024-07-31 14:07:18*
%MOMM*%
%LPD*%
G01*
G04 APERTURE LIST*
G04 Aperture macros list*
%AMRoundRect*
0 Rectangle with rounded corners*
0 $1 Rounding radius*
0 $2 $3 $4 $5 $6 $7 $8 $9 X,Y pos of 4 corners*
0 Add a 4 corners polygon primitive as box body*
4,1,4,$2,$3,$4,$5,$6,$7,$8,$9,$2,$3,0*
0 Add four circle primitives for the rounded corners*
1,1,$1+$1,$2,$3*
1,1,$1+$1,$4,$5*
1,1,$1+$1,$6,$7*
1,1,$1+$1,$8,$9*
0 Add four rect primitives between the rounded corners*
20,1,$1+$1,$2,$3,$4,$5,0*
20,1,$1+$1,$4,$5,$6,$7,0*
20,1,$1+$1,$6,$7,$8,$9,0*
20,1,$1+$1,$8,$9,$2,$3,0*%
G04 Aperture macros list end*
%ADD10R,1.400000X1.200000*%
%ADD11RoundRect,0.317500X-1.157500X-0.317500X1.157500X-0.317500X1.157500X0.317500X-1.157500X0.317500X0*%
%ADD12RoundRect,0.375000X-0.625000X-0.375000X0.625000X-0.375000X0.625000X0.375000X-0.625000X0.375000X0*%
%ADD13RoundRect,0.500000X-0.500000X-1.400000X0.500000X-1.400000X0.500000X1.400000X-0.500000X1.400000X0*%
%ADD14RoundRect,0.200000X0.200000X0.800000X-0.200000X0.800000X-0.200000X-0.800000X0.200000X-0.800000X0*%
%ADD15RoundRect,0.200000X0.800000X-0.200000X0.800000X0.200000X-0.800000X0.200000X-0.800000X-0.200000X0*%
%ADD16RoundRect,0.135000X0.185000X-0.135000X0.185000X0.135000X-0.185000X0.135000X-0.185000X-0.135000X0*%
%ADD17RoundRect,0.135000X-0.135000X-0.185000X0.135000X-0.185000X0.135000X0.185000X-0.135000X0.185000X0*%
%ADD18RoundRect,0.135000X0.135000X0.185000X-0.135000X0.185000X-0.135000X-0.185000X0.135000X-0.185000X0*%
%ADD19RoundRect,0.250000X-0.250000X0.275000X-0.250000X-0.275000X0.250000X-0.275000X0.250000X0.275000X0*%
%ADD20RoundRect,0.250000X-0.275000X0.850000X-0.275000X-0.850000X0.275000X-0.850000X0.275000X0.850000X0*%
%ADD21RoundRect,0.140000X0.170000X-0.140000X0.170000X0.140000X-0.170000X0.140000X-0.170000X-0.140000X0*%
%ADD22RoundRect,0.140000X0.140000X0.170000X-0.140000X0.170000X-0.140000X-0.170000X0.140000X-0.170000X0*%
%ADD23RoundRect,0.140000X-0.140000X-0.170000X0.140000X-0.170000X0.140000X0.170000X-0.140000X0.170000X0*%
%ADD24RoundRect,0.140000X-0.170000X0.140000X-0.170000X-0.140000X0.170000X-0.140000X0.170000X0.140000X0*%
%ADD25R,0.600000X1.240000*%
%ADD26R,0.300000X1.240000*%
%ADD27RoundRect,0.135000X-0.185000X0.135000X-0.185000X-0.135000X0.185000X-0.135000X0.185000X0.135000X0*%
%ADD28RoundRect,0.150000X-0.650000X-0.150000X0.650000X-0.150000X0.650000X0.150000X-0.650000X0.150000X0*%
%ADD29RoundRect,0.249999X-0.395001X-0.395001X0.395001X-0.395001X0.395001X0.395001X-0.395001X0.395001X0*%
%ADD30RoundRect,0.050000X-0.387500X-0.050000X0.387500X-0.050000X0.387500X0.050000X-0.387500X0.050000X0*%
%ADD31RoundRect,0.050000X-0.050000X-0.387500X0.050000X-0.387500X0.050000X0.387500X-0.050000X0.387500X0*%
G04 APERTURE END LIST*
D10*
%TO.C,Y1*%
X67800000Y-60700000D03*
X70000000Y-60700000D03*
X70000000Y-59000000D03*
X67800000Y-59000000D03*
%TD*%
D11*
%TO.C,U4*%
X40450000Y-45000000D03*
X40450000Y-47000000D03*
X40450000Y-49000000D03*
X40450000Y-51000000D03*
X40450000Y-53000000D03*
X40450000Y-55000000D03*
X40450000Y-57000000D03*
X40450000Y-59000000D03*
X55500000Y-59000000D03*
X55500000Y-57000000D03*
X55500000Y-55000000D03*
X55500000Y-53000000D03*
X55500000Y-51000000D03*
X55500000Y-49000000D03*
X55500000Y-47000000D03*
X55500000Y-45000000D03*
%TD*%
D12*
%TO.C,U3*%
X48200000Y-35200000D03*
X48200000Y-37500000D03*
D13*
X54500000Y-37500000D03*
D12*
X48200000Y-39800000D03*
%TD*%
D14*
%TO.C,SW2*%
X81500000Y-56000000D03*
X77300000Y-56000000D03*
%TD*%
D15*
%TO.C,SW1*%
X82000000Y-51100000D03*
X82000000Y-46900000D03*
%TD*%
D16*
%TO.C,R8*%
X67500000Y-56020000D03*
X67500000Y-55000000D03*
%TD*%
D17*
%TO.C,R7*%
X71500000Y-63500000D03*
X72520000Y-63500000D03*
%TD*%
%TO.C,R6*%
X84480000Y-47000000D03*
X85500000Y-47000000D03*
%TD*%
D18*
%TO.C,R5*%
X85510000Y-48500000D03*
X84490000Y-48500000D03*
%TD*%
D19*
%TO.C,J1*%
X55525000Y-63925000D03*
D20*
X57000000Y-65450000D03*
X54050000Y-65450000D03*
%TD*%
D21*
%TO.C,C16*%
X72000000Y-60480000D03*
X72000000Y-59520000D03*
%TD*%
D22*
%TO.C,C15*%
X69000000Y-63500000D03*
X68040000Y-63500000D03*
%TD*%
D23*
%TO.C,C14*%
X81020000Y-52500000D03*
X81980000Y-52500000D03*
%TD*%
D24*
%TO.C,C13*%
X56500000Y-38540000D03*
X56500000Y-39500000D03*
%TD*%
D21*
%TO.C,C12*%
X46000000Y-37980000D03*
X46000000Y-37020000D03*
%TD*%
D25*
%TO.C,P1*%
X44200000Y-33225000D03*
X43400000Y-33225000D03*
D26*
X42250000Y-33225000D03*
X41250000Y-33225000D03*
X40750000Y-33225000D03*
X39750000Y-33225000D03*
D25*
X38600000Y-33225000D03*
X37800000Y-33225000D03*
X37800000Y-33225000D03*
X38600000Y-33225000D03*
D26*
X39250000Y-33225000D03*
X40250000Y-33225000D03*
X41750000Y-33225000D03*
X42750000Y-33225000D03*
D25*
X43400000Y-33225000D03*
X44200000Y-33225000D03*
%TD*%
D18*
%TO.C,R4*%
X37480000Y-35980000D03*
X38500000Y-35980000D03*
%TD*%
D27*
%TO.C,R3*%
X42500000Y-35490000D03*
X42500000Y-36510000D03*
%TD*%
%TO.C,R2*%
X73510000Y-40990000D03*
X73510000Y-42010000D03*
%TD*%
%TO.C,R1*%
X75000000Y-40990000D03*
X75000000Y-42010000D03*
%TD*%
D21*
%TO.C,C11*%
X74500000Y-44480000D03*
X74500000Y-43520000D03*
%TD*%
%TO.C,C10*%
X72000000Y-42480000D03*
X72000000Y-41520000D03*
%TD*%
D24*
%TO.C,C9*%
X74000000Y-55520000D03*
X74000000Y-56480000D03*
%TD*%
D21*
%TO.C,C8*%
X76000000Y-43000000D03*
X76000000Y-42040000D03*
%TD*%
D24*
%TO.C,C7*%
X76500000Y-44040000D03*
X76500000Y-45000000D03*
%TD*%
%TO.C,C6*%
X72500000Y-43520000D03*
X72500000Y-44480000D03*
%TD*%
%TO.C,C5*%
X67000000Y-45520000D03*
X67000000Y-46480000D03*
%TD*%
D23*
%TO.C,C4*%
X65460000Y-51000000D03*
X64500000Y-51000000D03*
%TD*%
D21*
%TO.C,C3*%
X72000000Y-56960000D03*
X72000000Y-56000000D03*
%TD*%
D22*
%TO.C,C2*%
X78980000Y-51000000D03*
X78020000Y-51000000D03*
%TD*%
%TO.C,C1*%
X78000000Y-46500000D03*
X77040000Y-46500000D03*
%TD*%
D28*
%TO.C,U2*%
X58800000Y-35190000D03*
X58800000Y-36460000D03*
X58800000Y-37730000D03*
X58800000Y-39000000D03*
X66000000Y-39000000D03*
X66000000Y-37730000D03*
X66000000Y-36460000D03*
X66000000Y-35190000D03*
%TD*%
D29*
%TO.C,U1*%
X71200000Y-49200000D03*
X71200000Y-50800000D03*
X72800000Y-49200000D03*
X72800000Y-50800000D03*
D30*
X68562500Y-47400000D03*
X68562500Y-47800000D03*
X68562500Y-48200000D03*
X68562500Y-48600000D03*
X68562500Y-49000000D03*
X68562500Y-49400000D03*
X68562500Y-49800000D03*
X68562500Y-50200000D03*
X68562500Y-50600000D03*
X68562500Y-51000000D03*
X68562500Y-51400000D03*
X68562500Y-51800000D03*
X68562500Y-52200000D03*
X68562500Y-52600000D03*
D31*
X69400000Y-53437500D03*
X69800000Y-53437500D03*
X70200000Y-53437500D03*
X70600000Y-53437500D03*
X71000000Y-53437500D03*
X71400000Y-53437500D03*
X71800000Y-53437500D03*
X72200000Y-53437500D03*
X72600000Y-53437500D03*
X73000000Y-53437500D03*
X73400000Y-53437500D03*
X73800000Y-53437500D03*
X74200000Y-53437500D03*
X74600000Y-53437500D03*
D30*
X75437500Y-52600000D03*
X75437500Y-52200000D03*
X75437500Y-51800000D03*
X75437500Y-51400000D03*
X75437500Y-51000000D03*
X75437500Y-50600000D03*
X75437500Y-50200000D03*
X75437500Y-49800000D03*
X75437500Y-49400000D03*
X75437500Y-49000000D03*
X75437500Y-48600000D03*
X75437500Y-48200000D03*
X75437500Y-47800000D03*
X75437500Y-47400000D03*
D31*
X74600000Y-46562500D03*
X74200000Y-46562500D03*
X73800000Y-46562500D03*
X73400000Y-46562500D03*
X73000000Y-46562500D03*
X72600000Y-46562500D03*
X72200000Y-46562500D03*
X71800000Y-46562500D03*
X71400000Y-46562500D03*
X71000000Y-46562500D03*
X70600000Y-46562500D03*
X70200000Y-46562500D03*
X69800000Y-46562500D03*
X69400000Y-46562500D03*
%TD*%
M02*
