%TF.GenerationSoftware,KiCad,Pcbnew,8.0.4*%
%TF.CreationDate,2024-07-31T14:07:18-04:00*%
%TF.ProjectId,board,626f6172-642e-46b6-9963-61645f706362,rev?*%
%TF.SameCoordinates,Original*%
%TF.FileFunction,Copper,L1,Top*%
%TF.FilePolarity,Positive*%
%FSLAX46Y46*%
G04 Gerber Fmt 4.6, Leading zero omitted, Abs format (unit mm)*
G04 Created by KiCad (PCBNEW 8.0.4) date 2024-07-31 14:07:18*
%MOMM*%
%LPD*%
G01*
G04 APERTURE LIST*
G04 Aperture macros list*
%AMRoundRect*
0 Rectangle with rounded corners*
0 $1 Rounding radius*
0 $2 $3 $4 $5 $6 $7 $8 $9 X,Y pos of 4 corners*
0 Add a 4 corners polygon primitive as box body*
4,1,4,$2,$3,$4,$5,$6,$7,$8,$9,$2,$3,0*
0 Add four circle primitives for the rounded corners*
1,1,$1+$1,$2,$3*
1,1,$1+$1,$4,$5*
1,1,$1+$1,$6,$7*
1,1,$1+$1,$8,$9*
0 Add four rect primitives between the rounded corners*
20,1,$1+$1,$2,$3,$4,$5,0*
20,1,$1+$1,$4,$5,$6,$7,0*
20,1,$1+$1,$6,$7,$8,$9,0*
20,1,$1+$1,$8,$9,$2,$3,0*%
G04 Aperture macros list end*
%TA.AperFunction,ComponentPad*%
%ADD10R,1.700000X1.700000*%
%TD*%
%TA.AperFunction,ComponentPad*%
%ADD11O,1.700000X1.700000*%
%TD*%
%TA.AperFunction,SMDPad,CuDef*%
%ADD12R,1.400000X1.200000*%
%TD*%
%TA.AperFunction,SMDPad,CuDef*%
%ADD13RoundRect,0.317500X-1.157500X-0.317500X1.157500X-0.317500X1.157500X0.317500X-1.157500X0.317500X0*%
%TD*%
%TA.AperFunction,SMDPad,CuDef*%
%ADD14RoundRect,0.375000X-0.625000X-0.375000X0.625000X-0.375000X0.625000X0.375000X-0.625000X0.375000X0*%
%TD*%
%TA.AperFunction,SMDPad,CuDef*%
%ADD15RoundRect,0.500000X-0.500000X-1.400000X0.500000X-1.400000X0.500000X1.400000X-0.500000X1.400000X0*%
%TD*%
%TA.AperFunction,SMDPad,CuDef*%
%ADD16RoundRect,0.200000X0.200000X0.800000X-0.200000X0.800000X-0.200000X-0.800000X0.200000X-0.800000X0*%
%TD*%
%TA.AperFunction,SMDPad,CuDef*%
%ADD17RoundRect,0.200000X0.800000X-0.200000X0.800000X0.200000X-0.800000X0.200000X-0.800000X-0.200000X0*%
%TD*%
%TA.AperFunction,SMDPad,CuDef*%
%ADD18RoundRect,0.135000X0.185000X-0.135000X0.185000X0.135000X-0.185000X0.135000X-0.185000X-0.135000X0*%
%TD*%
%TA.AperFunction,SMDPad,CuDef*%
%ADD19RoundRect,0.135000X-0.135000X-0.185000X0.135000X-0.185000X0.135000X0.185000X-0.135000X0.185000X0*%
%TD*%
%TA.AperFunction,SMDPad,CuDef*%
%ADD20RoundRect,0.135000X0.135000X0.185000X-0.135000X0.185000X-0.135000X-0.185000X0.135000X-0.185000X0*%
%TD*%
%TA.AperFunction,SMDPad,CuDef*%
%ADD21RoundRect,0.250000X-0.250000X0.275000X-0.250000X-0.275000X0.250000X-0.275000X0.250000X0.275000X0*%
%TD*%
%TA.AperFunction,SMDPad,CuDef*%
%ADD22RoundRect,0.250000X-0.275000X0.850000X-0.275000X-0.850000X0.275000X-0.850000X0.275000X0.850000X0*%
%TD*%
%TA.AperFunction,SMDPad,CuDef*%
%ADD23RoundRect,0.140000X0.170000X-0.140000X0.170000X0.140000X-0.170000X0.140000X-0.170000X-0.140000X0*%
%TD*%
%TA.AperFunction,SMDPad,CuDef*%
%ADD24RoundRect,0.140000X0.140000X0.170000X-0.140000X0.170000X-0.140000X-0.170000X0.140000X-0.170000X0*%
%TD*%
%TA.AperFunction,SMDPad,CuDef*%
%ADD25RoundRect,0.140000X-0.140000X-0.170000X0.140000X-0.170000X0.140000X0.170000X-0.140000X0.170000X0*%
%TD*%
%TA.AperFunction,SMDPad,CuDef*%
%ADD26RoundRect,0.140000X-0.170000X0.140000X-0.170000X-0.140000X0.170000X-0.140000X0.170000X0.140000X0*%
%TD*%
%TA.AperFunction,SMDPad,CuDef*%
%ADD27R,0.600000X1.240000*%
%TD*%
%TA.AperFunction,SMDPad,CuDef*%
%ADD28R,0.300000X1.240000*%
%TD*%
%TA.AperFunction,ComponentPad*%
%ADD29O,1.000000X2.100000*%
%TD*%
%TA.AperFunction,ComponentPad*%
%ADD30O,1.000000X1.800000*%
%TD*%
%TA.AperFunction,SMDPad,CuDef*%
%ADD31RoundRect,0.135000X-0.185000X0.135000X-0.185000X-0.135000X0.185000X-0.135000X0.185000X0.135000X0*%
%TD*%
%TA.AperFunction,SMDPad,CuDef*%
%ADD32RoundRect,0.150000X-0.650000X-0.150000X0.650000X-0.150000X0.650000X0.150000X-0.650000X0.150000X0*%
%TD*%
%TA.AperFunction,SMDPad,CuDef*%
%ADD33RoundRect,0.050000X-0.387500X-0.050000X0.387500X-0.050000X0.387500X0.050000X-0.387500X0.050000X0*%
%TD*%
%TA.AperFunction,SMDPad,CuDef*%
%ADD34RoundRect,0.050000X-0.050000X-0.387500X0.050000X-0.387500X0.050000X0.387500X-0.050000X0.387500X0*%
%TD*%
%TA.AperFunction,HeatsinkPad*%
%ADD35R,3.200000X3.200000*%
%TD*%
%TA.AperFunction,ViaPad*%
%ADD36C,0.600000*%
%TD*%
%TA.AperFunction,Conductor*%
%ADD37C,0.200000*%
%TD*%
G04 APERTURE END LIST*
D10*
%TO.P,J3,1,Pin_1*%
%TO.N,Net-(J3-Pin_1)*%
X84040000Y-28500000D03*
D11*
%TO.P,J3,2,Pin_2*%
%TO.N,Net-(J3-Pin_2)*%
X81500000Y-28500000D03*
%TO.P,J3,3,Pin_3*%
%TO.N,Net-(J3-Pin_3)*%
X78960000Y-28500000D03*
%TO.P,J3,4,Pin_4*%
%TO.N,Net-(J3-Pin_4)*%
X76420000Y-28500000D03*
%TO.P,J3,5,Pin_5*%
%TO.N,Net-(J3-Pin_5)*%
X73880000Y-28500000D03*
%TO.P,J3,6,Pin_6*%
%TO.N,Net-(J3-Pin_6)*%
X71340000Y-28500000D03*
%TO.P,J3,7,Pin_7*%
%TO.N,Net-(J3-Pin_7)*%
X68800000Y-28500000D03*
%TO.P,J3,8,Pin_8*%
%TO.N,Net-(J3-Pin_8)*%
X66260000Y-28500000D03*
%TD*%
D12*
%TO.P,Y1,1,1*%
%TO.N,Net-(C15-Pad2)*%
X67800000Y-60700000D03*
%TO.P,Y1,2,2*%
%TO.N,GND*%
X70000000Y-60700000D03*
%TO.P,Y1,3,3*%
%TO.N,Net-(U1-XIN)*%
X70000000Y-59000000D03*
%TO.P,Y1,4,4*%
%TO.N,GND*%
X67800000Y-59000000D03*
%TD*%
D13*
%TO.P,U4,1,GND*%
%TO.N,GND*%
X40450000Y-45000000D03*
%TO.P,U4,2,MISO*%
%TO.N,Net-(U1-GPIO0)*%
X40450000Y-47000000D03*
%TO.P,U4,3,MOSI*%
%TO.N,Net-(U1-GPIO3)*%
X40450000Y-49000000D03*
%TO.P,U4,4,SCK*%
%TO.N,Net-(U1-GPIO2)*%
X40450000Y-51000000D03*
%TO.P,U4,5,NSS*%
%TO.N,Net-(U1-GPIO1)*%
X40450000Y-53000000D03*
%TO.P,U4,6,RESET*%
%TO.N,Net-(U1-GPIO10)*%
X40450000Y-55000000D03*
%TO.P,U4,7,DIO5*%
%TO.N,/DIO5*%
X40450000Y-57000000D03*
%TO.P,U4,8,GND*%
%TO.N,GND*%
X40450000Y-59000000D03*
%TO.P,U4,9,ANT*%
%TO.N,Net-(J1-In)*%
X55500000Y-59000000D03*
%TO.P,U4,10,GND*%
%TO.N,GND*%
X55500000Y-57000000D03*
%TO.P,U4,11,DIO3*%
%TO.N,/DIO3*%
X55500000Y-55000000D03*
%TO.P,U4,12,DIO4*%
%TO.N,/DIO4*%
X55500000Y-53000000D03*
%TO.P,U4,13,3.3V*%
%TO.N,+3V3*%
X55500000Y-51000000D03*
%TO.P,U4,14,DIO0*%
%TO.N,/DIO0*%
X55500000Y-49000000D03*
%TO.P,U4,15,DIO1*%
%TO.N,/DIO1*%
X55500000Y-47000000D03*
%TO.P,U4,16,DIO2*%
%TO.N,/DIO2*%
X55500000Y-45000000D03*
%TD*%
D14*
%TO.P,U3,1,GND*%
%TO.N,GND*%
X48200000Y-35200000D03*
%TO.P,U3,2,VO*%
%TO.N,+3V3*%
X48200000Y-37500000D03*
D15*
X54500000Y-37500000D03*
D14*
%TO.P,U3,3,VI*%
%TO.N,VBUS*%
X48200000Y-39800000D03*
%TD*%
D16*
%TO.P,SW2,1,1*%
%TO.N,GND*%
X81500000Y-56000000D03*
%TO.P,SW2,2,2*%
%TO.N,Net-(U1-RUN)*%
X77300000Y-56000000D03*
%TD*%
D17*
%TO.P,SW1,1,1*%
%TO.N,GND*%
X82000000Y-51100000D03*
%TO.P,SW1,2,2*%
%TO.N,Net-(R6-Pad1)*%
X82000000Y-46900000D03*
%TD*%
D18*
%TO.P,R8,1*%
%TO.N,+3V3*%
X67500000Y-56020000D03*
%TO.P,R8,2*%
%TO.N,Net-(U1-GPIO10)*%
X67500000Y-55000000D03*
%TD*%
D19*
%TO.P,R7,1*%
%TO.N,Net-(C15-Pad2)*%
X71500000Y-63500000D03*
%TO.P,R7,2*%
%TO.N,Net-(U1-XOUT)*%
X72520000Y-63500000D03*
%TD*%
%TO.P,R6,1*%
%TO.N,Net-(R6-Pad1)*%
X84480000Y-47000000D03*
%TO.P,R6,2*%
%TO.N,Net-(U1-QSPI_SS)*%
X85500000Y-47000000D03*
%TD*%
D20*
%TO.P,R5,1*%
%TO.N,Net-(U1-QSPI_SS)*%
X85510000Y-48500000D03*
%TO.P,R5,2*%
%TO.N,+3V3*%
X84490000Y-48500000D03*
%TD*%
D10*
%TO.P,J2,1,Pin_1*%
%TO.N,Net-(J2-Pin_1)*%
X83500000Y-63040000D03*
D11*
%TO.P,J2,2,Pin_2*%
%TO.N,Net-(J2-Pin_2)*%
X83500000Y-65580000D03*
%TD*%
D21*
%TO.P,J1,1,In*%
%TO.N,Net-(J1-In)*%
X55525000Y-63925000D03*
D22*
%TO.P,J1,2,Ext*%
%TO.N,GND*%
X57000000Y-65450000D03*
X54050000Y-65450000D03*
%TD*%
D23*
%TO.P,C16,1*%
%TO.N,GND*%
X72000000Y-60480000D03*
%TO.P,C16,2*%
%TO.N,Net-(U1-XIN)*%
X72000000Y-59520000D03*
%TD*%
D24*
%TO.P,C15,1*%
%TO.N,GND*%
X69000000Y-63500000D03*
%TO.P,C15,2*%
%TO.N,Net-(C15-Pad2)*%
X68040000Y-63500000D03*
%TD*%
D25*
%TO.P,C14,1*%
%TO.N,+3V3*%
X81020000Y-52500000D03*
%TO.P,C14,2*%
%TO.N,GND*%
X81980000Y-52500000D03*
%TD*%
D26*
%TO.P,C13,1*%
%TO.N,+3V3*%
X56500000Y-38540000D03*
%TO.P,C13,2*%
%TO.N,GND*%
X56500000Y-39500000D03*
%TD*%
D23*
%TO.P,C12,1*%
%TO.N,VBUS*%
X46000000Y-37980000D03*
%TO.P,C12,2*%
%TO.N,GND*%
X46000000Y-37020000D03*
%TD*%
D27*
%TO.P,P1,A1,GND*%
%TO.N,GND*%
X44200000Y-33225000D03*
%TO.P,P1,A4,VBUS*%
%TO.N,VBUS*%
X43400000Y-33225000D03*
D28*
%TO.P,P1,A5,CC1*%
%TO.N,Net-(P1-CC1)*%
X42250000Y-33225000D03*
%TO.P,P1,A6,D+*%
%TO.N,Net-(P1-D+-PadA6)*%
X41250000Y-33225000D03*
%TO.P,P1,A7,D-*%
%TO.N,Net-(P1-D--PadA7)*%
X40750000Y-33225000D03*
%TO.P,P1,A8*%
%TO.N,N/C*%
X39750000Y-33225000D03*
D27*
%TO.P,P1,A9,VBUS*%
%TO.N,VBUS*%
X38600000Y-33225000D03*
%TO.P,P1,A12,GND*%
%TO.N,GND*%
X37800000Y-33225000D03*
%TO.P,P1,B1,GND*%
X37800000Y-33225000D03*
%TO.P,P1,B4,VBUS*%
%TO.N,VBUS*%
X38600000Y-33225000D03*
D28*
%TO.P,P1,B5,CC2*%
%TO.N,Net-(P1-CC2)*%
X39250000Y-33225000D03*
%TO.P,P1,B6,D+*%
%TO.N,Net-(P1-D+-PadA6)*%
X40250000Y-33225000D03*
%TO.P,P1,B7,D-*%
%TO.N,Net-(P1-D--PadA7)*%
X41750000Y-33225000D03*
%TO.P,P1,B8*%
%TO.N,N/C*%
X42750000Y-33225000D03*
D27*
%TO.P,P1,B9,VBUS*%
%TO.N,VBUS*%
X43400000Y-33225000D03*
%TO.P,P1,B12,GND*%
%TO.N,GND*%
X44200000Y-33225000D03*
D29*
%TO.P,P1,S1,SHIELD*%
X45320000Y-32625000D03*
D30*
X45320000Y-28425000D03*
D29*
X36680000Y-32625000D03*
D30*
X36680000Y-28425000D03*
%TD*%
D20*
%TO.P,R4,2*%
%TO.N,GND*%
X37480000Y-35980000D03*
%TO.P,R4,1*%
%TO.N,Net-(P1-CC2)*%
X38500000Y-35980000D03*
%TD*%
D31*
%TO.P,R3,1*%
%TO.N,Net-(P1-CC1)*%
X42500000Y-35490000D03*
%TO.P,R3,2*%
%TO.N,GND*%
X42500000Y-36510000D03*
%TD*%
%TO.P,R2,1*%
%TO.N,Net-(P1-D+-PadA6)*%
X73510000Y-40990000D03*
%TO.P,R2,2*%
%TO.N,Net-(U1-USB_DP)*%
X73510000Y-42010000D03*
%TD*%
%TO.P,R1,1*%
%TO.N,Net-(P1-D--PadA7)*%
X75000000Y-40990000D03*
%TO.P,R1,2*%
%TO.N,Net-(U1-USB_DM)*%
X75000000Y-42010000D03*
%TD*%
D23*
%TO.P,C11,1*%
%TO.N,+1V1*%
X74500000Y-44480000D03*
%TO.P,C11,2*%
%TO.N,GND*%
X74500000Y-43520000D03*
%TD*%
%TO.P,C10,1*%
%TO.N,+1V1*%
X72000000Y-42480000D03*
%TO.P,C10,2*%
%TO.N,GND*%
X72000000Y-41520000D03*
%TD*%
D26*
%TO.P,C9,1*%
%TO.N,+1V1*%
X74000000Y-55520000D03*
%TO.P,C9,2*%
%TO.N,GND*%
X74000000Y-56480000D03*
%TD*%
D23*
%TO.P,C8,1*%
%TO.N,+3V3*%
X76000000Y-43000000D03*
%TO.P,C8,2*%
%TO.N,GND*%
X76000000Y-42040000D03*
%TD*%
D26*
%TO.P,C7,1*%
%TO.N,GND*%
X76500000Y-44040000D03*
%TO.P,C7,2*%
%TO.N,+3V3*%
X76500000Y-45000000D03*
%TD*%
%TO.P,C6,1*%
%TO.N,GND*%
X72500000Y-43520000D03*
%TO.P,C6,2*%
%TO.N,+3V3*%
X72500000Y-44480000D03*
%TD*%
%TO.P,C5,1*%
%TO.N,GND*%
X67000000Y-45520000D03*
%TO.P,C5,2*%
%TO.N,+3V3*%
X67000000Y-46480000D03*
%TD*%
D25*
%TO.P,C4,2*%
%TO.N,+3V3*%
X65460000Y-51000000D03*
%TO.P,C4,1*%
%TO.N,GND*%
X64500000Y-51000000D03*
%TD*%
D23*
%TO.P,C3,1*%
%TO.N,GND*%
X72000000Y-56960000D03*
%TO.P,C3,2*%
%TO.N,+3V3*%
X72000000Y-56000000D03*
%TD*%
D24*
%TO.P,C2,1*%
%TO.N,GND*%
X78980000Y-51000000D03*
%TO.P,C2,2*%
%TO.N,+3V3*%
X78020000Y-51000000D03*
%TD*%
%TO.P,C1,1*%
%TO.N,GND*%
X78000000Y-46500000D03*
%TO.P,C1,2*%
%TO.N,+3V3*%
X77040000Y-46500000D03*
%TD*%
D32*
%TO.P,U2,1,~{CS}*%
%TO.N,Net-(U1-QSPI_SS)*%
X58800000Y-35190000D03*
%TO.P,U2,2,DO(IO1)*%
%TO.N,Net-(U1-QSPI_SD1)*%
X58800000Y-36460000D03*
%TO.P,U2,3,IO2*%
%TO.N,Net-(U1-QSPI_SD2)*%
X58800000Y-37730000D03*
%TO.P,U2,4,GND*%
%TO.N,GND*%
X58800000Y-39000000D03*
%TO.P,U2,5,DI(IO0)*%
%TO.N,Net-(U1-QSPI_SD0)*%
X66000000Y-39000000D03*
%TO.P,U2,6,CLK*%
%TO.N,Net-(U1-QSPI_SCLK)*%
X66000000Y-37730000D03*
%TO.P,U2,7,IO3*%
%TO.N,Net-(U1-QSPI_SD3)*%
X66000000Y-36460000D03*
%TO.P,U2,8,VCC*%
%TO.N,+3V3*%
X66000000Y-35190000D03*
%TD*%
D33*
%TO.P,U1,1,IOVDD*%
%TO.N,+3V3*%
X68562500Y-47400000D03*
%TO.P,U1,2,GPIO0*%
%TO.N,Net-(U1-GPIO0)*%
X68562500Y-47800000D03*
%TO.P,U1,3,GPIO1*%
%TO.N,Net-(U1-GPIO1)*%
X68562500Y-48200000D03*
%TO.P,U1,4,GPIO2*%
%TO.N,Net-(U1-GPIO2)*%
X68562500Y-48600000D03*
%TO.P,U1,5,GPIO3*%
%TO.N,Net-(U1-GPIO3)*%
X68562500Y-49000000D03*
%TO.P,U1,6,GPIO4*%
%TO.N,/DIO0*%
X68562500Y-49400000D03*
%TO.P,U1,7,GPIO5*%
%TO.N,/DIO1*%
X68562500Y-49800000D03*
%TO.P,U1,8,GPIO6*%
%TO.N,/DIO2*%
X68562500Y-50200000D03*
%TO.P,U1,9,GPIO7*%
%TO.N,/DIO3*%
X68562500Y-50600000D03*
%TO.P,U1,10,IOVDD*%
%TO.N,+3V3*%
X68562500Y-51000000D03*
%TO.P,U1,11,GPIO8*%
%TO.N,/DIO4*%
X68562500Y-51400000D03*
%TO.P,U1,12,GPIO9*%
%TO.N,/DIO5*%
X68562500Y-51800000D03*
%TO.P,U1,13,GPIO10*%
%TO.N,Net-(U1-GPIO10)*%
X68562500Y-52200000D03*
%TO.P,U1,14,GPIO11*%
%TO.N,unconnected-(U1-GPIO11-Pad14)*%
X68562500Y-52600000D03*
D34*
%TO.P,U1,15,GPIO12*%
%TO.N,unconnected-(U1-GPIO12-Pad15)*%
X69400000Y-53437500D03*
%TO.P,U1,16,GPIO13*%
%TO.N,unconnected-(U1-GPIO13-Pad16)*%
X69800000Y-53437500D03*
%TO.P,U1,17,GPIO14*%
%TO.N,unconnected-(U1-GPIO14-Pad17)*%
X70200000Y-53437500D03*
%TO.P,U1,18,GPIO15*%
%TO.N,unconnected-(U1-GPIO15-Pad18)*%
X70600000Y-53437500D03*
%TO.P,U1,19,TESTEN*%
%TO.N,GND*%
X71000000Y-53437500D03*
%TO.P,U1,20,XIN*%
%TO.N,Net-(U1-XIN)*%
X71400000Y-53437500D03*
%TO.P,U1,21,XOUT*%
%TO.N,Net-(U1-XOUT)*%
X71800000Y-53437500D03*
%TO.P,U1,22,IOVDD*%
%TO.N,+3V3*%
X72200000Y-53437500D03*
%TO.P,U1,23,DVDD*%
%TO.N,+1V1*%
X72600000Y-53437500D03*
%TO.P,U1,24,SWCLK*%
%TO.N,Net-(J2-Pin_2)*%
X73000000Y-53437500D03*
%TO.P,U1,25,SWD*%
%TO.N,Net-(J2-Pin_1)*%
X73400000Y-53437500D03*
%TO.P,U1,26,RUN*%
%TO.N,Net-(U1-RUN)*%
X73800000Y-53437500D03*
%TO.P,U1,27,GPIO16*%
%TO.N,unconnected-(U1-GPIO16-Pad27)*%
X74200000Y-53437500D03*
%TO.P,U1,28,GPIO17*%
%TO.N,unconnected-(U1-GPIO17-Pad28)*%
X74600000Y-53437500D03*
D33*
%TO.P,U1,29,GPIO18*%
%TO.N,unconnected-(U1-GPIO18-Pad29)*%
X75437500Y-52600000D03*
%TO.P,U1,30,GPIO19*%
%TO.N,unconnected-(U1-GPIO19-Pad30)*%
X75437500Y-52200000D03*
%TO.P,U1,31,GPIO20*%
%TO.N,unconnected-(U1-GPIO20-Pad31)*%
X75437500Y-51800000D03*
%TO.P,U1,32,GPIO21*%
%TO.N,unconnected-(U1-GPIO21-Pad32)*%
X75437500Y-51400000D03*
%TO.P,U1,33,IOVDD*%
%TO.N,+3V3*%
X75437500Y-51000000D03*
%TO.P,U1,34,GPIO22*%
%TO.N,Net-(J3-Pin_1)*%
X75437500Y-50600000D03*
%TO.P,U1,35,GPIO23*%
%TO.N,Net-(J3-Pin_2)*%
X75437500Y-50200000D03*
%TO.P,U1,36,GPIO24*%
%TO.N,Net-(J3-Pin_3)*%
X75437500Y-49800000D03*
%TO.P,U1,37,GPIO25*%
%TO.N,Net-(J3-Pin_4)*%
X75437500Y-49400000D03*
%TO.P,U1,38,GPIO26_ADC0*%
%TO.N,Net-(J3-Pin_5)*%
X75437500Y-49000000D03*
%TO.P,U1,39,GPIO27_ADC1*%
%TO.N,Net-(J3-Pin_6)*%
X75437500Y-48600000D03*
%TO.P,U1,40,GPIO28_ADC2*%
%TO.N,Net-(J3-Pin_7)*%
X75437500Y-48200000D03*
%TO.P,U1,41,GPIO29_ADC3*%
%TO.N,Net-(J3-Pin_8)*%
X75437500Y-47800000D03*
%TO.P,U1,42,IOVDD*%
%TO.N,+3V3*%
X75437500Y-47400000D03*
D34*
%TO.P,U1,43,ADC_AVDD*%
X74600000Y-46562500D03*
%TO.P,U1,44,VREG_IN*%
X74200000Y-46562500D03*
%TO.P,U1,45,VREG_VOUT*%
%TO.N,+1V1*%
X73800000Y-46562500D03*
%TO.P,U1,46,USB_DM*%
%TO.N,Net-(U1-USB_DM)*%
X73400000Y-46562500D03*
%TO.P,U1,47,USB_DP*%
%TO.N,Net-(U1-USB_DP)*%
X73000000Y-46562500D03*
%TO.P,U1,48,USB_VDD*%
%TO.N,+3V3*%
X72600000Y-46562500D03*
%TO.P,U1,49,IOVDD*%
X72200000Y-46562500D03*
%TO.P,U1,50,DVDD*%
%TO.N,+1V1*%
X71800000Y-46562500D03*
%TO.P,U1,51,QSPI_SD3*%
%TO.N,Net-(U1-QSPI_SD3)*%
X71400000Y-46562500D03*
%TO.P,U1,52,QSPI_SCLK*%
%TO.N,Net-(U1-QSPI_SCLK)*%
X71000000Y-46562500D03*
%TO.P,U1,53,QSPI_SD0*%
%TO.N,Net-(U1-QSPI_SD0)*%
X70600000Y-46562500D03*
%TO.P,U1,54,QSPI_SD2*%
%TO.N,Net-(U1-QSPI_SD2)*%
X70200000Y-46562500D03*
%TO.P,U1,55,QSPI_SD1*%
%TO.N,Net-(U1-QSPI_SD1)*%
X69800000Y-46562500D03*
%TO.P,U1,56,QSPI_SS*%
%TO.N,Net-(U1-QSPI_SS)*%
X69400000Y-46562500D03*
D35*
%TO.P,U1,57,GND*%
%TO.N,GND*%
X72000000Y-50000000D03*
%TD*%
D36*
%TO.N,Net-(J3-Pin_1)*%
X74500000Y-51000000D03*
%TO.N,Net-(J3-Pin_2)*%
X76500000Y-50400000D03*
%TO.N,Net-(J3-Pin_3)*%
X77443125Y-50249468D03*
%TO.N,Net-(J3-Pin_4)*%
X77620951Y-49469480D03*
%TO.N,Net-(J3-Pin_5)*%
X77400000Y-48685586D03*
%TO.N,Net-(J3-Pin_6)*%
X77379002Y-47280579D03*
%TO.N,Net-(J3-Pin_7)*%
X76694265Y-47694265D03*
%TO.N,Net-(J3-Pin_8)*%
X74500000Y-48000000D03*
%TO.N,Net-(U1-QSPI_SS)*%
X61000000Y-35190000D03*
X61000000Y-33500000D03*
%TO.N,+3V3*%
X73500000Y-57560000D03*
X66000000Y-46120000D03*
X54000000Y-40500000D03*
%TO.N,+1V1*%
X71600000Y-52100002D03*
X71174265Y-41825735D03*
%TO.N,GND*%
X55000000Y-40000000D03*
X52000000Y-36500000D03*
X46000000Y-36251468D03*
%TO.N,/DIO5*%
X65000000Y-54000000D03*
X50500000Y-54000000D03*
%TO.N,Net-(U1-GPIO10)*%
X66500000Y-55000000D03*
X44500000Y-54500000D03*
%TO.N,Net-(U1-GPIO1)*%
X70000000Y-48000000D03*
X47000000Y-52500000D03*
%TO.N,Net-(U1-GPIO2)*%
X69500000Y-49500000D03*
X49500000Y-51000000D03*
%TO.N,Net-(U1-GPIO3)*%
X65500000Y-48400000D03*
X51000000Y-49000000D03*
%TO.N,Net-(U1-GPIO0)*%
X64475735Y-45524265D03*
X52000000Y-45000000D03*
%TO.N,GND*%
X72500000Y-57500000D03*
%TO.N,Net-(J2-Pin_1)*%
X82500000Y-60500000D03*
X73674265Y-52325735D03*
%TO.N,Net-(J2-Pin_2)*%
X81000000Y-65500000D03*
X72500000Y-52100002D03*
%TO.N,Net-(P1-D--PadA7)*%
X72159951Y-39805736D03*
X41627746Y-35051468D03*
%TO.N,Net-(P1-D+-PadA6)*%
X40848527Y-35651468D03*
X71594264Y-40405736D03*
%TO.N,GND*%
X79684265Y-50184265D03*
X78500000Y-49500000D03*
%TO.N,+3V3*%
X73000000Y-55000000D03*
X68500000Y-55500000D03*
%TO.N,GND*%
X67800000Y-57171360D03*
X58000000Y-57000000D03*
X42500000Y-45000000D03*
X42500000Y-37500000D03*
%TO.N,Net-(P1-CC2)*%
X39222953Y-32223289D03*
X39000000Y-35500000D03*
%TO.N,/DIO3*%
X66500000Y-51000000D03*
X66500000Y-54000000D03*
%TO.N,/DIO0*%
X66774265Y-49200000D03*
X60000000Y-49000000D03*
%TO.N,Net-(U1-QSPI_SD2)*%
X68303529Y-42196471D03*
X66569206Y-43095996D03*
%TO.N,Net-(U1-QSPI_SD1)*%
X66000000Y-42500000D03*
X67129264Y-41870736D03*
%TO.N,GND*%
X40500000Y-37000000D03*
%TD*%
D37*
%TO.N,Net-(J3-Pin_1)*%
X74900000Y-50600000D02*
X74500000Y-51000000D01*
X75437500Y-50600000D02*
X74900000Y-50600000D01*
%TO.N,Net-(J3-Pin_2)*%
X76300000Y-50200000D02*
X76500000Y-50400000D01*
X75437500Y-50200000D02*
X76300000Y-50200000D01*
%TO.N,Net-(J3-Pin_3)*%
X76993657Y-49800000D02*
X77443125Y-50249468D01*
X75437500Y-49800000D02*
X76993657Y-49800000D01*
%TO.N,Net-(J3-Pin_4)*%
X77551471Y-49400000D02*
X77620951Y-49469480D01*
X75437500Y-49400000D02*
X77551471Y-49400000D01*
%TO.N,Net-(J3-Pin_5)*%
X77085586Y-49000000D02*
X77400000Y-48685586D01*
X75437500Y-49000000D02*
X77085586Y-49000000D01*
%TO.N,Net-(J3-Pin_6)*%
X77379002Y-47858057D02*
X77379002Y-47280579D01*
X76637059Y-48600000D02*
X77379002Y-47858057D01*
X75437500Y-48600000D02*
X76637059Y-48600000D01*
%TO.N,Net-(J3-Pin_7)*%
X76188530Y-48200000D02*
X76694265Y-47694265D01*
X75437500Y-48200000D02*
X76188530Y-48200000D01*
%TO.N,Net-(J3-Pin_8)*%
X74700000Y-47800000D02*
X74500000Y-48000000D01*
X75437500Y-47800000D02*
X74700000Y-47800000D01*
%TO.N,+3V3*%
X80520000Y-45571076D02*
X70138924Y-35190000D01*
X80520000Y-48500000D02*
X80520000Y-45571076D01*
X70138924Y-35190000D02*
X66000000Y-35190000D01*
%TO.N,Net-(U1-QSPI_SS)*%
X61000000Y-35190000D02*
X58800000Y-35190000D01*
X73000000Y-33500000D02*
X61000000Y-33500000D01*
X85500000Y-46000000D02*
X73000000Y-33500000D01*
%TO.N,GND*%
X36680000Y-32625000D02*
X36680000Y-28425000D01*
X45320000Y-32625000D02*
X45320000Y-28425000D01*
%TO.N,+3V3*%
X73940000Y-58000000D02*
X73500000Y-57560000D01*
X81500000Y-58000000D02*
X73940000Y-58000000D01*
X83300000Y-50687352D02*
X83300000Y-56200000D01*
X80987352Y-50400000D02*
X83012648Y-50400000D01*
X83012648Y-50400000D02*
X83300000Y-50687352D01*
X79520000Y-51867352D02*
X80987352Y-50400000D01*
X83300000Y-56200000D02*
X81500000Y-58000000D01*
X79520000Y-52500000D02*
X79520000Y-51867352D01*
X66640000Y-46120000D02*
X67000000Y-46480000D01*
X66000000Y-46120000D02*
X66640000Y-46120000D01*
X54500000Y-37500000D02*
X54000000Y-38000000D01*
X54000000Y-38000000D02*
X54000000Y-40500000D01*
%TO.N,+1V1*%
X72600000Y-52903640D02*
X72600000Y-53437500D01*
X71862500Y-52700000D02*
X72396360Y-52700000D01*
X71600000Y-52437500D02*
X71862500Y-52700000D01*
X71600000Y-52100002D02*
X71600000Y-52437500D01*
X72396360Y-52700000D02*
X72600000Y-52903640D01*
X71828530Y-42480000D02*
X71174265Y-41825735D01*
X72000000Y-42480000D02*
X71828530Y-42480000D01*
%TO.N,Net-(U1-QSPI_SD3)*%
X66799999Y-36460000D02*
X66000000Y-36460000D01*
X68000000Y-39500000D02*
X68000000Y-37660001D01*
X68000000Y-37660001D02*
X66799999Y-36460000D01*
X71400000Y-42900000D02*
X71400000Y-46562500D01*
X68000000Y-39500000D02*
X71400000Y-42900000D01*
%TO.N,Net-(U1-QSPI_SCLK)*%
X71000000Y-43434314D02*
X71000000Y-46562500D01*
X67500000Y-39934314D02*
X71000000Y-43434314D01*
X67500000Y-38430001D02*
X67500000Y-39934314D01*
X66799999Y-37730000D02*
X67500000Y-38430001D01*
X66000000Y-37730000D02*
X66799999Y-37730000D01*
%TO.N,+3V3*%
X74600000Y-46562500D02*
X75437500Y-47400000D01*
X74200000Y-46562500D02*
X74600000Y-46562500D01*
X74200000Y-47300000D02*
X74200000Y-46562500D01*
X73003640Y-47500000D02*
X74000000Y-47500000D01*
X74000000Y-47500000D02*
X74200000Y-47300000D01*
X72600000Y-47096360D02*
X73003640Y-47500000D01*
X72600000Y-46562500D02*
X72600000Y-47096360D01*
X71896360Y-47400000D02*
X72200000Y-47096360D01*
X68562500Y-47400000D02*
X71896360Y-47400000D01*
X72200000Y-47096360D02*
X72200000Y-46562500D01*
%TO.N,GND*%
X57000000Y-39000000D02*
X56500000Y-39500000D01*
X58800000Y-39000000D02*
X57000000Y-39000000D01*
X56000000Y-40000000D02*
X56500000Y-39500000D01*
X50700000Y-35200000D02*
X52000000Y-36500000D01*
X55000000Y-40000000D02*
X56000000Y-40000000D01*
X48200000Y-35200000D02*
X50700000Y-35200000D01*
X46000000Y-36251468D02*
X46000000Y-37020000D01*
X41385000Y-58065000D02*
X54435000Y-58065000D01*
X40450000Y-59000000D02*
X41385000Y-58065000D01*
X54435000Y-58065000D02*
X55500000Y-57000000D01*
%TO.N,/DIO5*%
X67700000Y-51800000D02*
X68562500Y-51800000D01*
X65000000Y-54000000D02*
X65500000Y-54000000D01*
X65500000Y-54000000D02*
X67700000Y-51800000D01*
%TO.N,/DIO4*%
X67514215Y-51400000D02*
X68562500Y-51400000D01*
X66065686Y-52000000D02*
X66914215Y-52000000D01*
X66914215Y-52000000D02*
X67514215Y-51400000D01*
X65565686Y-52500000D02*
X66065686Y-52000000D01*
X56000000Y-52500000D02*
X65565686Y-52500000D01*
X55500000Y-53000000D02*
X56000000Y-52500000D01*
%TO.N,+3V3*%
X67348529Y-51000000D02*
X68562500Y-51000000D01*
X66748529Y-51600000D02*
X67348529Y-51000000D01*
X66060000Y-51600000D02*
X66748529Y-51600000D01*
X65460000Y-51000000D02*
X66060000Y-51600000D01*
X65500000Y-52000000D02*
X65980000Y-51520000D01*
X56978278Y-52000000D02*
X65500000Y-52000000D01*
X55978278Y-51000000D02*
X56978278Y-52000000D01*
X55500000Y-51000000D02*
X55978278Y-51000000D01*
%TO.N,GND*%
X53725000Y-50275000D02*
X53725000Y-50500000D01*
X53935000Y-50065000D02*
X53725000Y-50275000D01*
X56913278Y-50065000D02*
X53935000Y-50065000D01*
X57848278Y-51000000D02*
X56913278Y-50065000D01*
X64500000Y-51000000D02*
X57848278Y-51000000D01*
%TO.N,/DIO5*%
X47500000Y-57000000D02*
X50500000Y-54000000D01*
X40450000Y-57000000D02*
X47500000Y-57000000D01*
%TO.N,Net-(U1-GPIO10)*%
X66500000Y-55000000D02*
X67500000Y-55000000D01*
X44000000Y-55000000D02*
X44500000Y-54500000D01*
X40450000Y-55000000D02*
X44000000Y-55000000D01*
%TO.N,Net-(U1-GPIO1)*%
X69800000Y-48200000D02*
X68562500Y-48200000D01*
X70000000Y-48000000D02*
X69800000Y-48200000D01*
X40450000Y-53000000D02*
X46500000Y-53000000D01*
X46500000Y-53000000D02*
X47000000Y-52500000D01*
%TO.N,Net-(U1-GPIO2)*%
X69500000Y-49500000D02*
X69500000Y-49003640D01*
X69500000Y-49003640D02*
X69096360Y-48600000D01*
X69096360Y-48600000D02*
X68562500Y-48600000D01*
X40450000Y-51000000D02*
X49500000Y-51000000D01*
%TO.N,Net-(U1-GPIO3)*%
X67422794Y-49000000D02*
X68562500Y-49000000D01*
X66822794Y-48400000D02*
X67422794Y-49000000D01*
X65500000Y-48400000D02*
X66822794Y-48400000D01*
X40450000Y-49000000D02*
X51000000Y-49000000D01*
%TO.N,Net-(U1-GPIO0)*%
X66751470Y-47800000D02*
X68562500Y-47800000D01*
X64475735Y-45524265D02*
X66751470Y-47800000D01*
X50000000Y-47000000D02*
X52000000Y-45000000D01*
X40450000Y-47000000D02*
X50000000Y-47000000D01*
%TO.N,GND*%
X72000000Y-57000000D02*
X72500000Y-57500000D01*
X72000000Y-56960000D02*
X72000000Y-57000000D01*
%TO.N,Net-(J2-Pin_1)*%
X83500000Y-61500000D02*
X83500000Y-63040000D01*
X82500000Y-60500000D02*
X83500000Y-61500000D01*
X73400000Y-52600000D02*
X73674265Y-52325735D01*
X73400000Y-53437500D02*
X73400000Y-52600000D01*
%TO.N,Net-(J2-Pin_2)*%
X73000000Y-53437500D02*
X73000000Y-52600002D01*
X73000000Y-52600002D02*
X72500000Y-52100002D01*
X82080000Y-65580000D02*
X83500000Y-65580000D01*
X82000000Y-65500000D02*
X82080000Y-65580000D01*
X81000000Y-65500000D02*
X82000000Y-65500000D01*
%TO.N,GND*%
X74520000Y-43520000D02*
X76000000Y-42040000D01*
X74500000Y-43520000D02*
X74520000Y-43520000D01*
X76610000Y-42650000D02*
X76610000Y-43930000D01*
X76610000Y-43930000D02*
X76500000Y-44040000D01*
X76000000Y-42040000D02*
X76610000Y-42650000D01*
%TO.N,+3V3*%
X75890000Y-43110000D02*
X76000000Y-43000000D01*
X74200000Y-46562500D02*
X75890000Y-44872500D01*
X75890000Y-44872500D02*
X75890000Y-43110000D01*
%TO.N,GND*%
X78000000Y-45540000D02*
X76500000Y-44040000D01*
X78000000Y-46500000D02*
X78000000Y-45540000D01*
%TO.N,+3V3*%
X76162500Y-45000000D02*
X76500000Y-45000000D01*
X74600000Y-46562500D02*
X76162500Y-45000000D01*
%TO.N,Net-(P1-D--PadA7)*%
X41500000Y-34923722D02*
X41500000Y-34500000D01*
X41627746Y-35051468D02*
X41500000Y-34923722D01*
X73815736Y-39805736D02*
X72159951Y-39805736D01*
X75000000Y-40990000D02*
X73815736Y-39805736D01*
X41750000Y-34250000D02*
X41750000Y-33225000D01*
X41500000Y-34500000D02*
X41750000Y-34250000D01*
X40750000Y-34095000D02*
X41155000Y-34500000D01*
X40750000Y-33225000D02*
X40750000Y-34095000D01*
X41155000Y-34500000D02*
X41500000Y-34500000D01*
%TO.N,Net-(P1-D+-PadA6)*%
X41250000Y-32250000D02*
X41250000Y-33225000D01*
X41000000Y-32000000D02*
X41250000Y-32250000D01*
X40605000Y-32000000D02*
X41000000Y-32000000D01*
X40250000Y-32355000D02*
X40605000Y-32000000D01*
X40250000Y-33225000D02*
X40250000Y-32355000D01*
X40250000Y-35052941D02*
X40250000Y-33225000D01*
X40848527Y-35651468D02*
X40250000Y-35052941D01*
X72925736Y-40405736D02*
X71594264Y-40405736D01*
X73510000Y-40990000D02*
X72925736Y-40405736D01*
%TO.N,Net-(U1-USB_DM)*%
X74775686Y-42010000D02*
X75000000Y-42010000D01*
X73642843Y-44838977D02*
X73642843Y-43142843D01*
X73400000Y-45081820D02*
X73642843Y-44838977D01*
X73642843Y-43142843D02*
X74775686Y-42010000D01*
X73400000Y-46562500D02*
X73400000Y-45081820D01*
%TO.N,Net-(U1-USB_DP)*%
X73110000Y-43110000D02*
X73510000Y-42710000D01*
X73110000Y-44806134D02*
X73110000Y-43110000D01*
X73000000Y-44916134D02*
X73110000Y-44806134D01*
X73510000Y-42710000D02*
X73510000Y-42010000D01*
X73000000Y-46562500D02*
X73000000Y-44916134D01*
%TO.N,+1V1*%
X74500000Y-45328640D02*
X74500000Y-44480000D01*
X73800000Y-46028640D02*
X74500000Y-45328640D01*
X73800000Y-46562500D02*
X73800000Y-46028640D01*
%TO.N,GND*%
X53100000Y-49875000D02*
X53725000Y-50500000D01*
X58800000Y-39000000D02*
X58000001Y-39000000D01*
X58000001Y-39000000D02*
X53100000Y-43900001D01*
X53100000Y-43900001D02*
X53100000Y-49875000D01*
X53725000Y-50500000D02*
X53725000Y-56700000D01*
X65320000Y-45520000D02*
X67000000Y-45520000D01*
X58800000Y-39000000D02*
X65320000Y-45520000D01*
%TO.N,+3V3*%
X55540000Y-38540000D02*
X54500000Y-37500000D01*
X56500000Y-38540000D02*
X55540000Y-38540000D01*
%TO.N,GND*%
X80200000Y-57300000D02*
X81500000Y-56000000D01*
X74820000Y-57300000D02*
X80200000Y-57300000D01*
X74000000Y-56480000D02*
X74820000Y-57300000D01*
X73520000Y-56960000D02*
X74000000Y-56480000D01*
X72000000Y-56960000D02*
X73520000Y-56960000D01*
%TO.N,+1V1*%
X72600000Y-53971360D02*
X72600000Y-53437500D01*
X73196360Y-54175000D02*
X72803640Y-54175000D01*
X74000000Y-54978640D02*
X73196360Y-54175000D01*
X72803640Y-54175000D02*
X72600000Y-53971360D01*
X74000000Y-55520000D02*
X74000000Y-54978640D01*
%TO.N,GND*%
X79684265Y-50295735D02*
X78980000Y-51000000D01*
X78000000Y-49000000D02*
X78500000Y-49500000D01*
X78000000Y-46500000D02*
X78000000Y-49000000D01*
X79684265Y-50184265D02*
X79684265Y-50295735D01*
X72610000Y-43410000D02*
X72500000Y-43520000D01*
X72610000Y-42130000D02*
X72610000Y-43410000D01*
X72000000Y-41520000D02*
X72610000Y-42130000D01*
%TO.N,+1V1*%
X71800000Y-42680000D02*
X71800000Y-46562500D01*
X72000000Y-42480000D02*
X71800000Y-42680000D01*
%TO.N,+3V3*%
X73000000Y-55000000D02*
X72200000Y-55000000D01*
X72200000Y-55000000D02*
X72200000Y-53437500D01*
X72200000Y-55300000D02*
X72200000Y-55000000D01*
X67980000Y-56020000D02*
X68500000Y-55500000D01*
X67500000Y-56020000D02*
X67980000Y-56020000D01*
%TO.N,Net-(U1-GPIO10)*%
X67500000Y-52728640D02*
X68028640Y-52200000D01*
X67500000Y-55000000D02*
X67500000Y-52728640D01*
X68028640Y-52200000D02*
X68562500Y-52200000D01*
%TO.N,Net-(U1-RUN)*%
X73800000Y-53971360D02*
X73800000Y-53437500D01*
X75828640Y-56000000D02*
X73800000Y-53971360D01*
X77300000Y-56000000D02*
X75828640Y-56000000D01*
%TO.N,GND*%
X81500000Y-52980000D02*
X81980000Y-52500000D01*
X81500000Y-56000000D02*
X81500000Y-52980000D01*
%TO.N,+3V3*%
X79520000Y-52500000D02*
X78020000Y-51000000D01*
X81020000Y-52500000D02*
X79520000Y-52500000D01*
%TO.N,GND*%
X82000000Y-52500000D02*
X82000000Y-51100000D01*
X81980000Y-52500000D02*
X82000000Y-52500000D01*
X71000000Y-53971360D02*
X71000000Y-53437500D01*
X67800000Y-57171360D02*
X71000000Y-53971360D01*
X67800000Y-59000000D02*
X67800000Y-57171360D01*
X58000000Y-64450000D02*
X58000000Y-57000000D01*
X57000000Y-65450000D02*
X58000000Y-64450000D01*
X58000000Y-57000000D02*
X55500000Y-57000000D01*
%TO.N,/DIO3*%
X66900000Y-50600000D02*
X68562500Y-50600000D01*
X66500000Y-51000000D02*
X66900000Y-50600000D01*
X65500000Y-55000000D02*
X55500000Y-55000000D01*
X66500000Y-54000000D02*
X65500000Y-55000000D01*
%TO.N,/DIO0*%
X66974265Y-49400000D02*
X68562500Y-49400000D01*
X66774265Y-49200000D02*
X66974265Y-49400000D01*
%TO.N,/DIO1*%
X60165000Y-44065000D02*
X65900000Y-49800000D01*
X65900000Y-49800000D02*
X68562500Y-49800000D01*
X53500000Y-44651722D02*
X54086722Y-44065000D01*
X53500000Y-46475000D02*
X53500000Y-44651722D01*
X54025000Y-47000000D02*
X53500000Y-46475000D01*
X55500000Y-47000000D02*
X54025000Y-47000000D01*
X54086722Y-44065000D02*
X60165000Y-44065000D01*
%TO.N,Net-(U1-QSPI_SS)*%
X59599999Y-35190000D02*
X68705000Y-44295000D01*
X85500000Y-47000000D02*
X85500000Y-46000000D01*
X68705000Y-44295000D02*
X69400000Y-44990001D01*
%TO.N,+3V3*%
X80520000Y-48500000D02*
X78020000Y-51000000D01*
X84490000Y-48500000D02*
X80520000Y-48500000D01*
%TO.N,Net-(U1-QSPI_SS)*%
X85500000Y-48490000D02*
X85510000Y-48500000D01*
X85500000Y-47000000D02*
X85500000Y-48490000D01*
%TO.N,Net-(R6-Pad1)*%
X84380000Y-46900000D02*
X84480000Y-47000000D01*
X82000000Y-46900000D02*
X84380000Y-46900000D01*
%TO.N,VBUS*%
X43400000Y-35380000D02*
X46000000Y-37980000D01*
X43400000Y-33225000D02*
X43400000Y-35380000D01*
X43951471Y-39800000D02*
X48200000Y-39800000D01*
X41900000Y-37551471D02*
X41900000Y-37748529D01*
X38600000Y-34251471D02*
X41900000Y-37551471D01*
X38600000Y-33225000D02*
X38600000Y-34251471D01*
X41900000Y-37748529D02*
X43951471Y-39800000D01*
%TO.N,GND*%
X42500000Y-45000000D02*
X40450000Y-45000000D01*
X42500000Y-36510000D02*
X42500000Y-37500000D01*
X37480000Y-33545000D02*
X37800000Y-33225000D01*
X37480000Y-35980000D02*
X37480000Y-33545000D01*
%TO.N,Net-(P1-CC2)*%
X39222953Y-33197953D02*
X39250000Y-33225000D01*
X39222953Y-32223289D02*
X39222953Y-33197953D01*
X38520000Y-35980000D02*
X39000000Y-35500000D01*
X38500000Y-35980000D02*
X38520000Y-35980000D01*
%TO.N,Net-(P1-CC1)*%
X42250000Y-35240000D02*
X42250000Y-33225000D01*
X42500000Y-35490000D02*
X42250000Y-35240000D01*
%TO.N,GND*%
X45700000Y-35200000D02*
X48200000Y-35200000D01*
X44200000Y-33700000D02*
X45700000Y-35200000D01*
X44200000Y-33225000D02*
X44200000Y-33700000D01*
X37280000Y-33225000D02*
X36680000Y-32625000D01*
X37800000Y-33225000D02*
X37280000Y-33225000D01*
X44720000Y-33225000D02*
X45320000Y-32625000D01*
X44200000Y-33225000D02*
X44720000Y-33225000D01*
%TO.N,+3V3*%
X48200000Y-37500000D02*
X54500000Y-37500000D01*
%TO.N,GND*%
X46000000Y-37020000D02*
X46380000Y-37020000D01*
X46380000Y-37020000D02*
X48200000Y-35200000D01*
%TO.N,VBUS*%
X46380000Y-37980000D02*
X48200000Y-39800000D01*
X46000000Y-37980000D02*
X46380000Y-37980000D01*
%TO.N,+3V3*%
X65400000Y-34590000D02*
X66000000Y-35190000D01*
X57410000Y-34590000D02*
X65400000Y-34590000D01*
X54500000Y-37500000D02*
X57410000Y-34590000D01*
%TO.N,Net-(U1-XOUT)*%
X71390000Y-54712732D02*
X71800000Y-54302732D01*
X71390000Y-57286134D02*
X71390000Y-54712732D01*
X71800000Y-54302732D02*
X71800000Y-53437500D01*
X72610000Y-58506134D02*
X71390000Y-57286134D01*
X72610000Y-63410000D02*
X72610000Y-58506134D01*
X72520000Y-63500000D02*
X72610000Y-63410000D01*
%TO.N,Net-(C15-Pad2)*%
X70890000Y-64110000D02*
X71500000Y-63500000D01*
X68650000Y-64110000D02*
X70890000Y-64110000D01*
X68040000Y-63500000D02*
X68650000Y-64110000D01*
%TO.N,Net-(U1-XIN)*%
X71480000Y-59000000D02*
X72000000Y-59520000D01*
X70000000Y-59000000D02*
X71480000Y-59000000D01*
%TO.N,GND*%
X70220000Y-60480000D02*
X70000000Y-60700000D01*
X72000000Y-60480000D02*
X70220000Y-60480000D01*
X70000000Y-62000000D02*
X70000000Y-60700000D01*
X69000000Y-63000000D02*
X70000000Y-62000000D01*
X69000000Y-63500000D02*
X69000000Y-63000000D01*
%TO.N,Net-(C15-Pad2)*%
X68040000Y-60940000D02*
X67800000Y-60700000D01*
X68040000Y-63500000D02*
X68040000Y-60940000D01*
%TO.N,GND*%
X68200000Y-59000000D02*
X67800000Y-59000000D01*
X69900000Y-60700000D02*
X68200000Y-59000000D01*
X70000000Y-60700000D02*
X69900000Y-60700000D01*
%TO.N,+3V3*%
X72000000Y-55500000D02*
X72200000Y-55300000D01*
X72000000Y-56000000D02*
X72000000Y-55500000D01*
%TO.N,Net-(U1-XIN)*%
X71400000Y-54137046D02*
X71400000Y-53437500D01*
X70000000Y-55537046D02*
X71400000Y-54137046D01*
X70000000Y-59000000D02*
X70000000Y-55537046D01*
%TO.N,GND*%
X54025000Y-57000000D02*
X55500000Y-57000000D01*
X53525000Y-64925000D02*
X53525000Y-57500000D01*
X53525000Y-57500000D02*
X54025000Y-57000000D01*
X54050000Y-65450000D02*
X53525000Y-64925000D01*
%TO.N,Net-(J1-In)*%
X55525000Y-63925000D02*
X55525000Y-59025000D01*
X55525000Y-59025000D02*
X55500000Y-59000000D01*
%TO.N,GND*%
X71000000Y-51000000D02*
X72000000Y-50000000D01*
X71000000Y-53437500D02*
X71000000Y-51000000D01*
X53725000Y-56700000D02*
X54025000Y-57000000D01*
%TO.N,/DIO0*%
X55500000Y-49000000D02*
X60000000Y-49000000D01*
%TO.N,/DIO2*%
X62175000Y-50200000D02*
X68562500Y-50200000D01*
X56975000Y-45000000D02*
X62175000Y-50200000D01*
X55500000Y-45000000D02*
X56975000Y-45000000D01*
%TO.N,Net-(U1-QSPI_SD2)*%
X70200000Y-44092942D02*
X70200000Y-46562500D01*
X68303529Y-42196471D02*
X70200000Y-44092942D01*
X59599999Y-37730000D02*
X64969999Y-43100000D01*
X64969999Y-43100000D02*
X66565202Y-43100000D01*
X58800000Y-37730000D02*
X59599999Y-37730000D01*
X66565202Y-43100000D02*
X66569206Y-43095996D01*
%TO.N,Net-(U1-QSPI_SD1)*%
X69800000Y-44541472D02*
X69800000Y-46562500D01*
X67129264Y-41870736D02*
X69800000Y-44541472D01*
X59960000Y-36460000D02*
X66000000Y-42500000D01*
X58800000Y-36460000D02*
X59960000Y-36460000D01*
%TO.N,Net-(U1-QSPI_SS)*%
X69400000Y-44990001D02*
X69400000Y-46562500D01*
X58800000Y-35190000D02*
X59599999Y-35190000D01*
%TO.N,Net-(U1-QSPI_SD0)*%
X70600000Y-43600000D02*
X70600000Y-46562500D01*
X66000000Y-39000000D02*
X70600000Y-43600000D01*
%TO.N,+3V3*%
X68562500Y-47400000D02*
X67900000Y-47400000D01*
X67900000Y-47400000D02*
X67000000Y-46500000D01*
X76140000Y-47400000D02*
X77040000Y-46500000D01*
X75437500Y-47400000D02*
X76140000Y-47400000D01*
X78020000Y-51000000D02*
X75437500Y-51000000D01*
X72600000Y-45500000D02*
X72600000Y-44580000D01*
X72200000Y-45900000D02*
X72600000Y-45500000D01*
X72600000Y-46562500D02*
X72600000Y-45500000D01*
X72200000Y-46562500D02*
X72200000Y-45900000D01*
X72600000Y-44580000D02*
X72500000Y-44480000D01*
%TO.N,unconnected-(U1-GPIO11-Pad14)*%
X68562500Y-52600000D02*
X68500000Y-52600000D01*
%TO.N,GND*%
X37480000Y-35980000D02*
X38500000Y-37000000D01*
X38500000Y-37000000D02*
X40500000Y-37000000D01*
%TD*%
M02*
