%TF.GenerationSoftware,KiCad,Pcbnew,8.0.4*%
%TF.CreationDate,2024-07-31T14:07:18-04:00*%
%TF.ProjectId,board,626f6172-642e-46b6-9963-61645f706362,rev?*%
%TF.SameCoordinates,Original*%
%TF.FileFunction,Soldermask,Top*%
%TF.FilePolarity,Negative*%
%FSLAX46Y46*%
G04 Gerber Fmt 4.6, Leading zero omitted, Abs format (unit mm)*
G04 Created by KiCad (PCBNEW 8.0.4) date 2024-07-31 14:07:18*
%MOMM*%
%LPD*%
G01*
G04 APERTURE LIST*
G04 Aperture macros list*
%AMRoundRect*
0 Rectangle with rounded corners*
0 $1 Rounding radius*
0 $2 $3 $4 $5 $6 $7 $8 $9 X,Y pos of 4 corners*
0 Add a 4 corners polygon primitive as box body*
4,1,4,$2,$3,$4,$5,$6,$7,$8,$9,$2,$3,0*
0 Add four circle primitives for the rounded corners*
1,1,$1+$1,$2,$3*
1,1,$1+$1,$4,$5*
1,1,$1+$1,$6,$7*
1,1,$1+$1,$8,$9*
0 Add four rect primitives between the rounded corners*
20,1,$1+$1,$2,$3,$4,$5,0*
20,1,$1+$1,$4,$5,$6,$7,0*
20,1,$1+$1,$6,$7,$8,$9,0*
20,1,$1+$1,$8,$9,$2,$3,0*%
G04 Aperture macros list end*
%ADD10C,0.150000*%
%ADD11R,1.700000X1.700000*%
%ADD12O,1.700000X1.700000*%
%ADD13R,1.400000X1.200000*%
%ADD14RoundRect,0.317500X-1.157500X-0.317500X1.157500X-0.317500X1.157500X0.317500X-1.157500X0.317500X0*%
%ADD15RoundRect,0.375000X-0.625000X-0.375000X0.625000X-0.375000X0.625000X0.375000X-0.625000X0.375000X0*%
%ADD16RoundRect,0.500000X-0.500000X-1.400000X0.500000X-1.400000X0.500000X1.400000X-0.500000X1.400000X0*%
%ADD17RoundRect,0.200000X0.200000X0.800000X-0.200000X0.800000X-0.200000X-0.800000X0.200000X-0.800000X0*%
%ADD18RoundRect,0.200000X0.800000X-0.200000X0.800000X0.200000X-0.800000X0.200000X-0.800000X-0.200000X0*%
%ADD19RoundRect,0.135000X0.185000X-0.135000X0.185000X0.135000X-0.185000X0.135000X-0.185000X-0.135000X0*%
%ADD20RoundRect,0.135000X-0.135000X-0.185000X0.135000X-0.185000X0.135000X0.185000X-0.135000X0.185000X0*%
%ADD21RoundRect,0.135000X0.135000X0.185000X-0.135000X0.185000X-0.135000X-0.185000X0.135000X-0.185000X0*%
%ADD22RoundRect,0.250000X-0.250000X0.275000X-0.250000X-0.275000X0.250000X-0.275000X0.250000X0.275000X0*%
%ADD23RoundRect,0.250000X-0.275000X0.850000X-0.275000X-0.850000X0.275000X-0.850000X0.275000X0.850000X0*%
%ADD24RoundRect,0.140000X0.170000X-0.140000X0.170000X0.140000X-0.170000X0.140000X-0.170000X-0.140000X0*%
%ADD25RoundRect,0.140000X0.140000X0.170000X-0.140000X0.170000X-0.140000X-0.170000X0.140000X-0.170000X0*%
%ADD26RoundRect,0.140000X-0.140000X-0.170000X0.140000X-0.170000X0.140000X0.170000X-0.140000X0.170000X0*%
%ADD27RoundRect,0.140000X-0.170000X0.140000X-0.170000X-0.140000X0.170000X-0.140000X0.170000X0.140000X0*%
%ADD28C,0.650000*%
%ADD29R,0.600000X1.240000*%
%ADD30R,0.300000X1.240000*%
%ADD31O,1.000000X2.100000*%
%ADD32O,1.000000X1.800000*%
%ADD33RoundRect,0.135000X-0.185000X0.135000X-0.185000X-0.135000X0.185000X-0.135000X0.185000X0.135000X0*%
%ADD34RoundRect,0.150000X-0.650000X-0.150000X0.650000X-0.150000X0.650000X0.150000X-0.650000X0.150000X0*%
%ADD35RoundRect,0.050000X-0.387500X-0.050000X0.387500X-0.050000X0.387500X0.050000X-0.387500X0.050000X0*%
%ADD36RoundRect,0.050000X-0.050000X-0.387500X0.050000X-0.387500X0.050000X0.387500X-0.050000X0.387500X0*%
%ADD37R,3.200000X3.200000*%
G04 APERTURE END LIST*
D10*
X35527255Y-64173740D02*
X35527255Y-64649931D01*
X35193922Y-63649931D02*
X35527255Y-64173740D01*
X35527255Y-64173740D02*
X35860588Y-63649931D01*
X36146303Y-64364216D02*
X36622493Y-64364216D01*
X36051065Y-64649931D02*
X36384398Y-63649931D01*
X36384398Y-63649931D02*
X36717731Y-64649931D01*
X37622493Y-64649931D02*
X37289160Y-64173740D01*
X37051065Y-64649931D02*
X37051065Y-63649931D01*
X37051065Y-63649931D02*
X37432017Y-63649931D01*
X37432017Y-63649931D02*
X37527255Y-63697550D01*
X37527255Y-63697550D02*
X37574874Y-63745169D01*
X37574874Y-63745169D02*
X37622493Y-63840407D01*
X37622493Y-63840407D02*
X37622493Y-63983264D01*
X37622493Y-63983264D02*
X37574874Y-64078502D01*
X37574874Y-64078502D02*
X37527255Y-64126121D01*
X37527255Y-64126121D02*
X37432017Y-64173740D01*
X37432017Y-64173740D02*
X37051065Y-64173740D01*
X38527255Y-64649931D02*
X38051065Y-64649931D01*
X38051065Y-64649931D02*
X38051065Y-63649931D01*
X39003446Y-64649931D02*
X38908208Y-64602312D01*
X38908208Y-64602312D02*
X38860589Y-64554692D01*
X38860589Y-64554692D02*
X38812970Y-64459454D01*
X38812970Y-64459454D02*
X38812970Y-64173740D01*
X38812970Y-64173740D02*
X38860589Y-64078502D01*
X38860589Y-64078502D02*
X38908208Y-64030883D01*
X38908208Y-64030883D02*
X39003446Y-63983264D01*
X39003446Y-63983264D02*
X39146303Y-63983264D01*
X39146303Y-63983264D02*
X39241541Y-64030883D01*
X39241541Y-64030883D02*
X39289160Y-64078502D01*
X39289160Y-64078502D02*
X39336779Y-64173740D01*
X39336779Y-64173740D02*
X39336779Y-64459454D01*
X39336779Y-64459454D02*
X39289160Y-64554692D01*
X39289160Y-64554692D02*
X39241541Y-64602312D01*
X39241541Y-64602312D02*
X39146303Y-64649931D01*
X39146303Y-64649931D02*
X39003446Y-64649931D01*
X35765350Y-66259875D02*
X35765350Y-65259875D01*
X35765350Y-66212256D02*
X35670112Y-66259875D01*
X35670112Y-66259875D02*
X35479636Y-66259875D01*
X35479636Y-66259875D02*
X35384398Y-66212256D01*
X35384398Y-66212256D02*
X35336779Y-66164636D01*
X35336779Y-66164636D02*
X35289160Y-66069398D01*
X35289160Y-66069398D02*
X35289160Y-65783684D01*
X35289160Y-65783684D02*
X35336779Y-65688446D01*
X35336779Y-65688446D02*
X35384398Y-65640827D01*
X35384398Y-65640827D02*
X35479636Y-65593208D01*
X35479636Y-65593208D02*
X35670112Y-65593208D01*
X35670112Y-65593208D02*
X35765350Y-65640827D01*
X36622493Y-66212256D02*
X36527255Y-66259875D01*
X36527255Y-66259875D02*
X36336779Y-66259875D01*
X36336779Y-66259875D02*
X36241541Y-66212256D01*
X36241541Y-66212256D02*
X36193922Y-66117017D01*
X36193922Y-66117017D02*
X36193922Y-65736065D01*
X36193922Y-65736065D02*
X36241541Y-65640827D01*
X36241541Y-65640827D02*
X36336779Y-65593208D01*
X36336779Y-65593208D02*
X36527255Y-65593208D01*
X36527255Y-65593208D02*
X36622493Y-65640827D01*
X36622493Y-65640827D02*
X36670112Y-65736065D01*
X36670112Y-65736065D02*
X36670112Y-65831303D01*
X36670112Y-65831303D02*
X36193922Y-65926541D01*
X37051065Y-66212256D02*
X37146303Y-66259875D01*
X37146303Y-66259875D02*
X37336779Y-66259875D01*
X37336779Y-66259875D02*
X37432017Y-66212256D01*
X37432017Y-66212256D02*
X37479636Y-66117017D01*
X37479636Y-66117017D02*
X37479636Y-66069398D01*
X37479636Y-66069398D02*
X37432017Y-65974160D01*
X37432017Y-65974160D02*
X37336779Y-65926541D01*
X37336779Y-65926541D02*
X37193922Y-65926541D01*
X37193922Y-65926541D02*
X37098684Y-65878922D01*
X37098684Y-65878922D02*
X37051065Y-65783684D01*
X37051065Y-65783684D02*
X37051065Y-65736065D01*
X37051065Y-65736065D02*
X37098684Y-65640827D01*
X37098684Y-65640827D02*
X37193922Y-65593208D01*
X37193922Y-65593208D02*
X37336779Y-65593208D01*
X37336779Y-65593208D02*
X37432017Y-65640827D01*
X37908208Y-66259875D02*
X37908208Y-65593208D01*
X37908208Y-65259875D02*
X37860589Y-65307494D01*
X37860589Y-65307494D02*
X37908208Y-65355113D01*
X37908208Y-65355113D02*
X37955827Y-65307494D01*
X37955827Y-65307494D02*
X37908208Y-65259875D01*
X37908208Y-65259875D02*
X37908208Y-65355113D01*
X38812969Y-65593208D02*
X38812969Y-66402732D01*
X38812969Y-66402732D02*
X38765350Y-66497970D01*
X38765350Y-66497970D02*
X38717731Y-66545589D01*
X38717731Y-66545589D02*
X38622493Y-66593208D01*
X38622493Y-66593208D02*
X38479636Y-66593208D01*
X38479636Y-66593208D02*
X38384398Y-66545589D01*
X38812969Y-66212256D02*
X38717731Y-66259875D01*
X38717731Y-66259875D02*
X38527255Y-66259875D01*
X38527255Y-66259875D02*
X38432017Y-66212256D01*
X38432017Y-66212256D02*
X38384398Y-66164636D01*
X38384398Y-66164636D02*
X38336779Y-66069398D01*
X38336779Y-66069398D02*
X38336779Y-65783684D01*
X38336779Y-65783684D02*
X38384398Y-65688446D01*
X38384398Y-65688446D02*
X38432017Y-65640827D01*
X38432017Y-65640827D02*
X38527255Y-65593208D01*
X38527255Y-65593208D02*
X38717731Y-65593208D01*
X38717731Y-65593208D02*
X38812969Y-65640827D01*
X39289160Y-65593208D02*
X39289160Y-66259875D01*
X39289160Y-65688446D02*
X39336779Y-65640827D01*
X39336779Y-65640827D02*
X39432017Y-65593208D01*
X39432017Y-65593208D02*
X39574874Y-65593208D01*
X39574874Y-65593208D02*
X39670112Y-65640827D01*
X39670112Y-65640827D02*
X39717731Y-65736065D01*
X39717731Y-65736065D02*
X39717731Y-66259875D01*
X40955827Y-66259875D02*
X40955827Y-65259875D01*
X40955827Y-65640827D02*
X41051065Y-65593208D01*
X41051065Y-65593208D02*
X41241541Y-65593208D01*
X41241541Y-65593208D02*
X41336779Y-65640827D01*
X41336779Y-65640827D02*
X41384398Y-65688446D01*
X41384398Y-65688446D02*
X41432017Y-65783684D01*
X41432017Y-65783684D02*
X41432017Y-66069398D01*
X41432017Y-66069398D02*
X41384398Y-66164636D01*
X41384398Y-66164636D02*
X41336779Y-66212256D01*
X41336779Y-66212256D02*
X41241541Y-66259875D01*
X41241541Y-66259875D02*
X41051065Y-66259875D01*
X41051065Y-66259875D02*
X40955827Y-66212256D01*
X41765351Y-65593208D02*
X42003446Y-66259875D01*
X42241541Y-65593208D02*
X42003446Y-66259875D01*
X42003446Y-66259875D02*
X41908208Y-66497970D01*
X41908208Y-66497970D02*
X41860589Y-66545589D01*
X41860589Y-66545589D02*
X41765351Y-66593208D01*
X43336780Y-66212256D02*
X43432018Y-66259875D01*
X43432018Y-66259875D02*
X43622494Y-66259875D01*
X43622494Y-66259875D02*
X43717732Y-66212256D01*
X43717732Y-66212256D02*
X43765351Y-66117017D01*
X43765351Y-66117017D02*
X43765351Y-66069398D01*
X43765351Y-66069398D02*
X43717732Y-65974160D01*
X43717732Y-65974160D02*
X43622494Y-65926541D01*
X43622494Y-65926541D02*
X43479637Y-65926541D01*
X43479637Y-65926541D02*
X43384399Y-65878922D01*
X43384399Y-65878922D02*
X43336780Y-65783684D01*
X43336780Y-65783684D02*
X43336780Y-65736065D01*
X43336780Y-65736065D02*
X43384399Y-65640827D01*
X43384399Y-65640827D02*
X43479637Y-65593208D01*
X43479637Y-65593208D02*
X43622494Y-65593208D01*
X43622494Y-65593208D02*
X43717732Y-65640827D01*
X44622494Y-66212256D02*
X44527256Y-66259875D01*
X44527256Y-66259875D02*
X44336780Y-66259875D01*
X44336780Y-66259875D02*
X44241542Y-66212256D01*
X44241542Y-66212256D02*
X44193923Y-66164636D01*
X44193923Y-66164636D02*
X44146304Y-66069398D01*
X44146304Y-66069398D02*
X44146304Y-65783684D01*
X44146304Y-65783684D02*
X44193923Y-65688446D01*
X44193923Y-65688446D02*
X44241542Y-65640827D01*
X44241542Y-65640827D02*
X44336780Y-65593208D01*
X44336780Y-65593208D02*
X44527256Y-65593208D01*
X44527256Y-65593208D02*
X44622494Y-65640827D01*
X45479637Y-66259875D02*
X45479637Y-65736065D01*
X45479637Y-65736065D02*
X45432018Y-65640827D01*
X45432018Y-65640827D02*
X45336780Y-65593208D01*
X45336780Y-65593208D02*
X45146304Y-65593208D01*
X45146304Y-65593208D02*
X45051066Y-65640827D01*
X45479637Y-66212256D02*
X45384399Y-66259875D01*
X45384399Y-66259875D02*
X45146304Y-66259875D01*
X45146304Y-66259875D02*
X45051066Y-66212256D01*
X45051066Y-66212256D02*
X45003447Y-66117017D01*
X45003447Y-66117017D02*
X45003447Y-66021779D01*
X45003447Y-66021779D02*
X45051066Y-65926541D01*
X45051066Y-65926541D02*
X45146304Y-65878922D01*
X45146304Y-65878922D02*
X45384399Y-65878922D01*
X45384399Y-65878922D02*
X45479637Y-65831303D01*
X45955828Y-66259875D02*
X45955828Y-65593208D01*
X45955828Y-65783684D02*
X46003447Y-65688446D01*
X46003447Y-65688446D02*
X46051066Y-65640827D01*
X46051066Y-65640827D02*
X46146304Y-65593208D01*
X46146304Y-65593208D02*
X46241542Y-65593208D01*
X46717733Y-66259875D02*
X46622495Y-66212256D01*
X46622495Y-66212256D02*
X46574876Y-66117017D01*
X46574876Y-66117017D02*
X46574876Y-65259875D01*
X47479638Y-66212256D02*
X47384400Y-66259875D01*
X47384400Y-66259875D02*
X47193924Y-66259875D01*
X47193924Y-66259875D02*
X47098686Y-66212256D01*
X47098686Y-66212256D02*
X47051067Y-66117017D01*
X47051067Y-66117017D02*
X47051067Y-65736065D01*
X47051067Y-65736065D02*
X47098686Y-65640827D01*
X47098686Y-65640827D02*
X47193924Y-65593208D01*
X47193924Y-65593208D02*
X47384400Y-65593208D01*
X47384400Y-65593208D02*
X47479638Y-65640827D01*
X47479638Y-65640827D02*
X47527257Y-65736065D01*
X47527257Y-65736065D02*
X47527257Y-65831303D01*
X47527257Y-65831303D02*
X47051067Y-65926541D01*
X47812972Y-65593208D02*
X48193924Y-65593208D01*
X47955829Y-65259875D02*
X47955829Y-66117017D01*
X47955829Y-66117017D02*
X48003448Y-66212256D01*
X48003448Y-66212256D02*
X48098686Y-66259875D01*
X48098686Y-66259875D02*
X48193924Y-66259875D01*
X48384401Y-65593208D02*
X48765353Y-65593208D01*
X48527258Y-65259875D02*
X48527258Y-66117017D01*
X48527258Y-66117017D02*
X48574877Y-66212256D01*
X48574877Y-66212256D02*
X48670115Y-66259875D01*
X48670115Y-66259875D02*
X48765353Y-66259875D01*
X49479639Y-66212256D02*
X49384401Y-66259875D01*
X49384401Y-66259875D02*
X49193925Y-66259875D01*
X49193925Y-66259875D02*
X49098687Y-66212256D01*
X49098687Y-66212256D02*
X49051068Y-66117017D01*
X49051068Y-66117017D02*
X49051068Y-65736065D01*
X49051068Y-65736065D02*
X49098687Y-65640827D01*
X49098687Y-65640827D02*
X49193925Y-65593208D01*
X49193925Y-65593208D02*
X49384401Y-65593208D01*
X49384401Y-65593208D02*
X49479639Y-65640827D01*
X49479639Y-65640827D02*
X49527258Y-65736065D01*
X49527258Y-65736065D02*
X49527258Y-65831303D01*
X49527258Y-65831303D02*
X49051068Y-65926541D01*
X49955830Y-66259875D02*
X49955830Y-65259875D01*
X50051068Y-65878922D02*
X50336782Y-66259875D01*
X50336782Y-65593208D02*
X49955830Y-65974160D01*
X50765354Y-66259875D02*
X50765354Y-65259875D01*
X50860592Y-65878922D02*
X51146306Y-66259875D01*
X51146306Y-65593208D02*
X50765354Y-65974160D01*
X35241541Y-67203152D02*
X35479636Y-67869819D01*
X35479636Y-67869819D02*
X35717731Y-67203152D01*
X36622493Y-67869819D02*
X36051065Y-67869819D01*
X36336779Y-67869819D02*
X36336779Y-66869819D01*
X36336779Y-66869819D02*
X36241541Y-67012676D01*
X36241541Y-67012676D02*
X36146303Y-67107914D01*
X36146303Y-67107914D02*
X36051065Y-67155533D01*
%TO.C,J1*%
G36*
X56465000Y-64460000D02*
G01*
X54585000Y-64460000D01*
X54585000Y-66550000D01*
X56465000Y-66550000D01*
X56465000Y-64460000D01*
G37*
%TD*%
D11*
%TO.C,J3*%
X84040000Y-28500000D03*
D12*
X81500000Y-28500000D03*
X78960000Y-28500000D03*
X76420000Y-28500000D03*
X73880000Y-28500000D03*
X71340000Y-28500000D03*
X68800000Y-28500000D03*
X66260000Y-28500000D03*
%TD*%
D13*
%TO.C,Y1*%
X67800000Y-60700000D03*
X70000000Y-60700000D03*
X70000000Y-59000000D03*
X67800000Y-59000000D03*
%TD*%
D14*
%TO.C,U4*%
X40450000Y-45000000D03*
X40450000Y-47000000D03*
X40450000Y-49000000D03*
X40450000Y-51000000D03*
X40450000Y-53000000D03*
X40450000Y-55000000D03*
X40450000Y-57000000D03*
X40450000Y-59000000D03*
X55500000Y-59000000D03*
X55500000Y-57000000D03*
X55500000Y-55000000D03*
X55500000Y-53000000D03*
X55500000Y-51000000D03*
X55500000Y-49000000D03*
X55500000Y-47000000D03*
X55500000Y-45000000D03*
%TD*%
D15*
%TO.C,U3*%
X48200000Y-35200000D03*
X48200000Y-37500000D03*
D16*
X54500000Y-37500000D03*
D15*
X48200000Y-39800000D03*
%TD*%
D17*
%TO.C,SW2*%
X81500000Y-56000000D03*
X77300000Y-56000000D03*
%TD*%
D18*
%TO.C,SW1*%
X82000000Y-51100000D03*
X82000000Y-46900000D03*
%TD*%
D19*
%TO.C,R8*%
X67500000Y-56020000D03*
X67500000Y-55000000D03*
%TD*%
D20*
%TO.C,R7*%
X71500000Y-63500000D03*
X72520000Y-63500000D03*
%TD*%
%TO.C,R6*%
X84480000Y-47000000D03*
X85500000Y-47000000D03*
%TD*%
D21*
%TO.C,R5*%
X85510000Y-48500000D03*
X84490000Y-48500000D03*
%TD*%
D11*
%TO.C,J2*%
X83500000Y-63040000D03*
D12*
X83500000Y-65580000D03*
%TD*%
D22*
%TO.C,J1*%
X55525000Y-63925000D03*
D23*
X57000000Y-65450000D03*
X54050000Y-65450000D03*
%TD*%
D24*
%TO.C,C16*%
X72000000Y-60480000D03*
X72000000Y-59520000D03*
%TD*%
D25*
%TO.C,C15*%
X69000000Y-63500000D03*
X68040000Y-63500000D03*
%TD*%
D26*
%TO.C,C14*%
X81020000Y-52500000D03*
X81980000Y-52500000D03*
%TD*%
D27*
%TO.C,C13*%
X56500000Y-38540000D03*
X56500000Y-39500000D03*
%TD*%
D24*
%TO.C,C12*%
X46000000Y-37980000D03*
X46000000Y-37020000D03*
%TD*%
D28*
%TO.C,P1*%
X43890000Y-32105000D03*
X38110000Y-32105000D03*
D29*
X44200000Y-33225000D03*
X43400000Y-33225000D03*
D30*
X42250000Y-33225000D03*
X41250000Y-33225000D03*
X40750000Y-33225000D03*
X39750000Y-33225000D03*
D29*
X38600000Y-33225000D03*
X37800000Y-33225000D03*
X37800000Y-33225000D03*
X38600000Y-33225000D03*
D30*
X39250000Y-33225000D03*
X40250000Y-33225000D03*
X41750000Y-33225000D03*
X42750000Y-33225000D03*
D29*
X43400000Y-33225000D03*
X44200000Y-33225000D03*
D31*
X45320000Y-32625000D03*
D32*
X45320000Y-28425000D03*
D31*
X36680000Y-32625000D03*
D32*
X36680000Y-28425000D03*
%TD*%
D21*
%TO.C,R4*%
X37480000Y-35980000D03*
X38500000Y-35980000D03*
%TD*%
D33*
%TO.C,R3*%
X42500000Y-35490000D03*
X42500000Y-36510000D03*
%TD*%
%TO.C,R2*%
X73510000Y-40990000D03*
X73510000Y-42010000D03*
%TD*%
%TO.C,R1*%
X75000000Y-40990000D03*
X75000000Y-42010000D03*
%TD*%
D24*
%TO.C,C11*%
X74500000Y-44480000D03*
X74500000Y-43520000D03*
%TD*%
%TO.C,C10*%
X72000000Y-42480000D03*
X72000000Y-41520000D03*
%TD*%
D27*
%TO.C,C9*%
X74000000Y-55520000D03*
X74000000Y-56480000D03*
%TD*%
D24*
%TO.C,C8*%
X76000000Y-43000000D03*
X76000000Y-42040000D03*
%TD*%
D27*
%TO.C,C7*%
X76500000Y-44040000D03*
X76500000Y-45000000D03*
%TD*%
%TO.C,C6*%
X72500000Y-43520000D03*
X72500000Y-44480000D03*
%TD*%
%TO.C,C5*%
X67000000Y-45520000D03*
X67000000Y-46480000D03*
%TD*%
D26*
%TO.C,C4*%
X65460000Y-51000000D03*
X64500000Y-51000000D03*
%TD*%
D24*
%TO.C,C3*%
X72000000Y-56960000D03*
X72000000Y-56000000D03*
%TD*%
D25*
%TO.C,C2*%
X78980000Y-51000000D03*
X78020000Y-51000000D03*
%TD*%
%TO.C,C1*%
X78000000Y-46500000D03*
X77040000Y-46500000D03*
%TD*%
D34*
%TO.C,U2*%
X58800000Y-35190000D03*
X58800000Y-36460000D03*
X58800000Y-37730000D03*
X58800000Y-39000000D03*
X66000000Y-39000000D03*
X66000000Y-37730000D03*
X66000000Y-36460000D03*
X66000000Y-35190000D03*
%TD*%
D35*
%TO.C,U1*%
X68562500Y-47400000D03*
X68562500Y-47800000D03*
X68562500Y-48200000D03*
X68562500Y-48600000D03*
X68562500Y-49000000D03*
X68562500Y-49400000D03*
X68562500Y-49800000D03*
X68562500Y-50200000D03*
X68562500Y-50600000D03*
X68562500Y-51000000D03*
X68562500Y-51400000D03*
X68562500Y-51800000D03*
X68562500Y-52200000D03*
X68562500Y-52600000D03*
D36*
X69400000Y-53437500D03*
X69800000Y-53437500D03*
X70200000Y-53437500D03*
X70600000Y-53437500D03*
X71000000Y-53437500D03*
X71400000Y-53437500D03*
X71800000Y-53437500D03*
X72200000Y-53437500D03*
X72600000Y-53437500D03*
X73000000Y-53437500D03*
X73400000Y-53437500D03*
X73800000Y-53437500D03*
X74200000Y-53437500D03*
X74600000Y-53437500D03*
D35*
X75437500Y-52600000D03*
X75437500Y-52200000D03*
X75437500Y-51800000D03*
X75437500Y-51400000D03*
X75437500Y-51000000D03*
X75437500Y-50600000D03*
X75437500Y-50200000D03*
X75437500Y-49800000D03*
X75437500Y-49400000D03*
X75437500Y-49000000D03*
X75437500Y-48600000D03*
X75437500Y-48200000D03*
X75437500Y-47800000D03*
X75437500Y-47400000D03*
D36*
X74600000Y-46562500D03*
X74200000Y-46562500D03*
X73800000Y-46562500D03*
X73400000Y-46562500D03*
X73000000Y-46562500D03*
X72600000Y-46562500D03*
X72200000Y-46562500D03*
X71800000Y-46562500D03*
X71400000Y-46562500D03*
X71000000Y-46562500D03*
X70600000Y-46562500D03*
X70200000Y-46562500D03*
X69800000Y-46562500D03*
X69400000Y-46562500D03*
D37*
X72000000Y-50000000D03*
%TD*%
M02*
