%TF.GenerationSoftware,KiCad,Pcbnew,8.0.4*%
%TF.CreationDate,2024-07-31T14:07:18-04:00*%
%TF.ProjectId,board,626f6172-642e-46b6-9963-61645f706362,rev?*%
%TF.SameCoordinates,Original*%
%TF.FileFunction,Legend,Top*%
%TF.FilePolarity,Positive*%
%FSLAX46Y46*%
G04 Gerber Fmt 4.6, Leading zero omitted, Abs format (unit mm)*
G04 Created by KiCad (PCBNEW 8.0.4) date 2024-07-31 14:07:18*
%MOMM*%
%LPD*%
G01*
G04 APERTURE LIST*
%ADD10C,0.150000*%
%ADD11C,0.120000*%
G04 APERTURE END LIST*
D10*
X86264819Y-28833333D02*
X86979104Y-28833333D01*
X86979104Y-28833333D02*
X87121961Y-28880952D01*
X87121961Y-28880952D02*
X87217200Y-28976190D01*
X87217200Y-28976190D02*
X87264819Y-29119047D01*
X87264819Y-29119047D02*
X87264819Y-29214285D01*
X86264819Y-28452380D02*
X86264819Y-27833333D01*
X86264819Y-27833333D02*
X86645771Y-28166666D01*
X86645771Y-28166666D02*
X86645771Y-28023809D01*
X86645771Y-28023809D02*
X86693390Y-27928571D01*
X86693390Y-27928571D02*
X86741009Y-27880952D01*
X86741009Y-27880952D02*
X86836247Y-27833333D01*
X86836247Y-27833333D02*
X87074342Y-27833333D01*
X87074342Y-27833333D02*
X87169580Y-27880952D01*
X87169580Y-27880952D02*
X87217200Y-27928571D01*
X87217200Y-27928571D02*
X87264819Y-28023809D01*
X87264819Y-28023809D02*
X87264819Y-28309523D01*
X87264819Y-28309523D02*
X87217200Y-28404761D01*
X87217200Y-28404761D02*
X87169580Y-28452380D01*
X68423809Y-57378628D02*
X68423809Y-57854819D01*
X68090476Y-56854819D02*
X68423809Y-57378628D01*
X68423809Y-57378628D02*
X68757142Y-56854819D01*
X69614285Y-57854819D02*
X69042857Y-57854819D01*
X69328571Y-57854819D02*
X69328571Y-56854819D01*
X69328571Y-56854819D02*
X69233333Y-56997676D01*
X69233333Y-56997676D02*
X69138095Y-57092914D01*
X69138095Y-57092914D02*
X69042857Y-57140533D01*
X47213095Y-42254819D02*
X47213095Y-43064342D01*
X47213095Y-43064342D02*
X47260714Y-43159580D01*
X47260714Y-43159580D02*
X47308333Y-43207200D01*
X47308333Y-43207200D02*
X47403571Y-43254819D01*
X47403571Y-43254819D02*
X47594047Y-43254819D01*
X47594047Y-43254819D02*
X47689285Y-43207200D01*
X47689285Y-43207200D02*
X47736904Y-43159580D01*
X47736904Y-43159580D02*
X47784523Y-43064342D01*
X47784523Y-43064342D02*
X47784523Y-42254819D01*
X48689285Y-42588152D02*
X48689285Y-43254819D01*
X48451190Y-42207200D02*
X48213095Y-42921485D01*
X48213095Y-42921485D02*
X48832142Y-42921485D01*
X50588095Y-32454819D02*
X50588095Y-33264342D01*
X50588095Y-33264342D02*
X50635714Y-33359580D01*
X50635714Y-33359580D02*
X50683333Y-33407200D01*
X50683333Y-33407200D02*
X50778571Y-33454819D01*
X50778571Y-33454819D02*
X50969047Y-33454819D01*
X50969047Y-33454819D02*
X51064285Y-33407200D01*
X51064285Y-33407200D02*
X51111904Y-33359580D01*
X51111904Y-33359580D02*
X51159523Y-33264342D01*
X51159523Y-33264342D02*
X51159523Y-32454819D01*
X51540476Y-32454819D02*
X52159523Y-32454819D01*
X52159523Y-32454819D02*
X51826190Y-32835771D01*
X51826190Y-32835771D02*
X51969047Y-32835771D01*
X51969047Y-32835771D02*
X52064285Y-32883390D01*
X52064285Y-32883390D02*
X52111904Y-32931009D01*
X52111904Y-32931009D02*
X52159523Y-33026247D01*
X52159523Y-33026247D02*
X52159523Y-33264342D01*
X52159523Y-33264342D02*
X52111904Y-33359580D01*
X52111904Y-33359580D02*
X52064285Y-33407200D01*
X52064285Y-33407200D02*
X51969047Y-33454819D01*
X51969047Y-33454819D02*
X51683333Y-33454819D01*
X51683333Y-33454819D02*
X51588095Y-33407200D01*
X51588095Y-33407200D02*
X51540476Y-33359580D01*
X83166666Y-59724819D02*
X83166666Y-60439104D01*
X83166666Y-60439104D02*
X83119047Y-60581961D01*
X83119047Y-60581961D02*
X83023809Y-60677200D01*
X83023809Y-60677200D02*
X82880952Y-60724819D01*
X82880952Y-60724819D02*
X82785714Y-60724819D01*
X83595238Y-59820057D02*
X83642857Y-59772438D01*
X83642857Y-59772438D02*
X83738095Y-59724819D01*
X83738095Y-59724819D02*
X83976190Y-59724819D01*
X83976190Y-59724819D02*
X84071428Y-59772438D01*
X84071428Y-59772438D02*
X84119047Y-59820057D01*
X84119047Y-59820057D02*
X84166666Y-59915295D01*
X84166666Y-59915295D02*
X84166666Y-60010533D01*
X84166666Y-60010533D02*
X84119047Y-60153390D01*
X84119047Y-60153390D02*
X83547619Y-60724819D01*
X83547619Y-60724819D02*
X84166666Y-60724819D01*
X58179819Y-65783333D02*
X58894104Y-65783333D01*
X58894104Y-65783333D02*
X59036961Y-65830952D01*
X59036961Y-65830952D02*
X59132200Y-65926190D01*
X59132200Y-65926190D02*
X59179819Y-66069047D01*
X59179819Y-66069047D02*
X59179819Y-66164285D01*
X59179819Y-64783333D02*
X59179819Y-65354761D01*
X59179819Y-65069047D02*
X58179819Y-65069047D01*
X58179819Y-65069047D02*
X58322676Y-65164285D01*
X58322676Y-65164285D02*
X58417914Y-65259523D01*
X58417914Y-65259523D02*
X58465533Y-65354761D01*
X40261905Y-35454819D02*
X40261905Y-34454819D01*
X40261905Y-34454819D02*
X40642857Y-34454819D01*
X40642857Y-34454819D02*
X40738095Y-34502438D01*
X40738095Y-34502438D02*
X40785714Y-34550057D01*
X40785714Y-34550057D02*
X40833333Y-34645295D01*
X40833333Y-34645295D02*
X40833333Y-34788152D01*
X40833333Y-34788152D02*
X40785714Y-34883390D01*
X40785714Y-34883390D02*
X40738095Y-34931009D01*
X40738095Y-34931009D02*
X40642857Y-34978628D01*
X40642857Y-34978628D02*
X40261905Y-34978628D01*
X41785714Y-35454819D02*
X41214286Y-35454819D01*
X41500000Y-35454819D02*
X41500000Y-34454819D01*
X41500000Y-34454819D02*
X41404762Y-34597676D01*
X41404762Y-34597676D02*
X41309524Y-34692914D01*
X41309524Y-34692914D02*
X41214286Y-34740533D01*
X61638095Y-32989819D02*
X61638095Y-33799342D01*
X61638095Y-33799342D02*
X61685714Y-33894580D01*
X61685714Y-33894580D02*
X61733333Y-33942200D01*
X61733333Y-33942200D02*
X61828571Y-33989819D01*
X61828571Y-33989819D02*
X62019047Y-33989819D01*
X62019047Y-33989819D02*
X62114285Y-33942200D01*
X62114285Y-33942200D02*
X62161904Y-33894580D01*
X62161904Y-33894580D02*
X62209523Y-33799342D01*
X62209523Y-33799342D02*
X62209523Y-32989819D01*
X62638095Y-33085057D02*
X62685714Y-33037438D01*
X62685714Y-33037438D02*
X62780952Y-32989819D01*
X62780952Y-32989819D02*
X63019047Y-32989819D01*
X63019047Y-32989819D02*
X63114285Y-33037438D01*
X63114285Y-33037438D02*
X63161904Y-33085057D01*
X63161904Y-33085057D02*
X63209523Y-33180295D01*
X63209523Y-33180295D02*
X63209523Y-33275533D01*
X63209523Y-33275533D02*
X63161904Y-33418390D01*
X63161904Y-33418390D02*
X62590476Y-33989819D01*
X62590476Y-33989819D02*
X63209523Y-33989819D01*
X77238095Y-43454819D02*
X77238095Y-44264342D01*
X77238095Y-44264342D02*
X77285714Y-44359580D01*
X77285714Y-44359580D02*
X77333333Y-44407200D01*
X77333333Y-44407200D02*
X77428571Y-44454819D01*
X77428571Y-44454819D02*
X77619047Y-44454819D01*
X77619047Y-44454819D02*
X77714285Y-44407200D01*
X77714285Y-44407200D02*
X77761904Y-44359580D01*
X77761904Y-44359580D02*
X77809523Y-44264342D01*
X77809523Y-44264342D02*
X77809523Y-43454819D01*
X78809523Y-44454819D02*
X78238095Y-44454819D01*
X78523809Y-44454819D02*
X78523809Y-43454819D01*
X78523809Y-43454819D02*
X78428571Y-43597676D01*
X78428571Y-43597676D02*
X78333333Y-43692914D01*
X78333333Y-43692914D02*
X78238095Y-43740533D01*
D11*
%TO.C,J3*%
X82770000Y-27170000D02*
X64930000Y-27170000D01*
X82770000Y-27170000D02*
X82770000Y-29830000D01*
X64930000Y-27170000D02*
X64930000Y-29830000D01*
X85370000Y-28500000D02*
X85370000Y-29830000D01*
X85370000Y-29830000D02*
X84040000Y-29830000D01*
X82770000Y-29830000D02*
X64930000Y-29830000D01*
%TO.C,Y1*%
X66900000Y-58200000D02*
X66900000Y-61500000D01*
X66900000Y-61500000D02*
X70900000Y-61500000D01*
%TO.C,U4*%
X39875000Y-43900000D02*
X56075000Y-43900000D01*
X39875000Y-59700000D02*
X39875000Y-60100000D01*
X39875000Y-60100000D02*
X56075000Y-60100000D01*
X56075000Y-43900000D02*
X56075000Y-44300000D01*
X56075000Y-60100000D02*
X56075000Y-59700000D01*
X39375000Y-44100000D02*
X39135000Y-43764000D01*
X39615000Y-43764000D01*
X39375000Y-44100000D01*
G36*
X39375000Y-44100000D02*
G01*
X39135000Y-43764000D01*
X39615000Y-43764000D01*
X39375000Y-44100000D01*
G37*
%TO.C,U3*%
X49500000Y-34090000D02*
X53260000Y-34090000D01*
X49500000Y-40910000D02*
X53260000Y-40910000D01*
X53260000Y-34090000D02*
X53260000Y-35350000D01*
X53260000Y-40910000D02*
X53260000Y-39650000D01*
X48220000Y-34190000D02*
X47980000Y-33860000D01*
X48460000Y-33860000D01*
X48220000Y-34190000D01*
G36*
X48220000Y-34190000D02*
G01*
X47980000Y-33860000D01*
X48460000Y-33860000D01*
X48220000Y-34190000D01*
G37*
%TO.C,SW2*%
X81470000Y-57570000D02*
X77330000Y-57570000D01*
X81470000Y-57270000D02*
X81470000Y-57570000D01*
X81470000Y-54430000D02*
X81470000Y-54730000D01*
X77330000Y-57570000D02*
X77330000Y-57270000D01*
X77330000Y-54730000D02*
X77330000Y-54430000D01*
X77330000Y-54430000D02*
X81470000Y-54430000D01*
%TO.C,SW1*%
X80430000Y-51070000D02*
X80430000Y-46930000D01*
X80730000Y-51070000D02*
X80430000Y-51070000D01*
X83570000Y-51070000D02*
X83270000Y-51070000D01*
X80430000Y-46930000D02*
X80730000Y-46930000D01*
X83270000Y-46930000D02*
X83570000Y-46930000D01*
X83570000Y-46930000D02*
X83570000Y-51070000D01*
%TO.C,R8*%
X67120000Y-55663641D02*
X67120000Y-55356359D01*
X67880000Y-55663641D02*
X67880000Y-55356359D01*
%TO.C,R7*%
X71856359Y-63120000D02*
X72163641Y-63120000D01*
X71856359Y-63880000D02*
X72163641Y-63880000D01*
%TO.C,R6*%
X84836359Y-46620000D02*
X85143641Y-46620000D01*
X84836359Y-47380000D02*
X85143641Y-47380000D01*
%TO.C,R5*%
X85153641Y-48880000D02*
X84846359Y-48880000D01*
X85153641Y-48120000D02*
X84846359Y-48120000D01*
%TO.C,J2*%
X82170000Y-64310000D02*
X82170000Y-66910000D01*
X82170000Y-64310000D02*
X84830000Y-64310000D01*
X82170000Y-66910000D02*
X84830000Y-66910000D01*
X83500000Y-61710000D02*
X84830000Y-61710000D01*
X84830000Y-61710000D02*
X84830000Y-63040000D01*
X84830000Y-64310000D02*
X84830000Y-66910000D01*
%TO.C,J1*%
X56925000Y-64090000D02*
X56285000Y-64090000D01*
X56285000Y-64090000D02*
X56285000Y-63460000D01*
X54125000Y-64090000D02*
X54765000Y-64090000D01*
X56875000Y-66810000D02*
X54175000Y-66810000D01*
%TO.C,C16*%
X71640000Y-60107836D02*
X71640000Y-59892164D01*
X72360000Y-60107836D02*
X72360000Y-59892164D01*
%TO.C,C15*%
X68627836Y-63860000D02*
X68412164Y-63860000D01*
X68627836Y-63140000D02*
X68412164Y-63140000D01*
%TO.C,C14*%
X81392164Y-52140000D02*
X81607836Y-52140000D01*
X81392164Y-52860000D02*
X81607836Y-52860000D01*
%TO.C,C13*%
X56860000Y-38912164D02*
X56860000Y-39127836D01*
X56140000Y-38912164D02*
X56140000Y-39127836D01*
%TO.C,C12*%
X45640000Y-37607836D02*
X45640000Y-37392164D01*
X46360000Y-37607836D02*
X46360000Y-37392164D01*
%TO.C,P1*%
X45580000Y-31350000D02*
X45580000Y-29430000D01*
X45580000Y-25715000D02*
X45580000Y-27420000D01*
X36420000Y-29430000D02*
X36420000Y-31350000D01*
X36420000Y-27420000D02*
X36420000Y-25715000D01*
X36420000Y-25715000D02*
X45580000Y-25715000D01*
%TO.C,R4*%
X38143641Y-35600000D02*
X37836359Y-35600000D01*
X38143641Y-36360000D02*
X37836359Y-36360000D01*
%TO.C,R3*%
X42880000Y-35846359D02*
X42880000Y-36153641D01*
X42120000Y-35846359D02*
X42120000Y-36153641D01*
%TO.C,R2*%
X73890000Y-41346359D02*
X73890000Y-41653641D01*
X73130000Y-41346359D02*
X73130000Y-41653641D01*
%TO.C,R1*%
X75380000Y-41346359D02*
X75380000Y-41653641D01*
X74620000Y-41346359D02*
X74620000Y-41653641D01*
%TO.C,C11*%
X74140000Y-44107836D02*
X74140000Y-43892164D01*
X74860000Y-44107836D02*
X74860000Y-43892164D01*
%TO.C,C10*%
X71640000Y-42107836D02*
X71640000Y-41892164D01*
X72360000Y-42107836D02*
X72360000Y-41892164D01*
%TO.C,C9*%
X74360000Y-55892164D02*
X74360000Y-56107836D01*
X73640000Y-55892164D02*
X73640000Y-56107836D01*
%TO.C,C8*%
X75640000Y-42627836D02*
X75640000Y-42412164D01*
X76360000Y-42627836D02*
X76360000Y-42412164D01*
%TO.C,C7*%
X76860000Y-44412164D02*
X76860000Y-44627836D01*
X76140000Y-44412164D02*
X76140000Y-44627836D01*
%TO.C,C6*%
X72860000Y-43892164D02*
X72860000Y-44107836D01*
X72140000Y-43892164D02*
X72140000Y-44107836D01*
%TO.C,C5*%
X67360000Y-45892164D02*
X67360000Y-46107836D01*
X66640000Y-45892164D02*
X66640000Y-46107836D01*
%TO.C,C4*%
X64872164Y-51360000D02*
X65087836Y-51360000D01*
X64872164Y-50640000D02*
X65087836Y-50640000D01*
%TO.C,C3*%
X71640000Y-56587836D02*
X71640000Y-56372164D01*
X72360000Y-56587836D02*
X72360000Y-56372164D01*
%TO.C,C2*%
X78607836Y-51360000D02*
X78392164Y-51360000D01*
X78607836Y-50640000D02*
X78392164Y-50640000D01*
%TO.C,C1*%
X77627836Y-46860000D02*
X77412164Y-46860000D01*
X77627836Y-46140000D02*
X77412164Y-46140000D01*
%TO.C,U2*%
X59675000Y-34370000D02*
X59675000Y-34630000D01*
X59675000Y-39820000D02*
X59675000Y-39560000D01*
X62400000Y-34370000D02*
X59675000Y-34370000D01*
X62400000Y-34370000D02*
X65125000Y-34370000D01*
X62400000Y-39820000D02*
X59675000Y-39820000D01*
X62400000Y-39820000D02*
X65125000Y-39820000D01*
X65125000Y-34370000D02*
X65125000Y-34630000D01*
X65125000Y-39820000D02*
X65125000Y-39560000D01*
X58892500Y-34630000D02*
X58652500Y-34300000D01*
X59132500Y-34300000D01*
X58892500Y-34630000D01*
G36*
X58892500Y-34630000D02*
G01*
X58652500Y-34300000D01*
X59132500Y-34300000D01*
X58892500Y-34630000D01*
G37*
%TO.C,U1*%
X68390000Y-47040000D02*
X68390000Y-46630000D01*
X68390000Y-53610000D02*
X68390000Y-52960000D01*
X69040000Y-46390000D02*
X68690000Y-46390000D01*
X69040000Y-53610000D02*
X68390000Y-53610000D01*
X74960000Y-46390000D02*
X75610000Y-46390000D01*
X74960000Y-53610000D02*
X75610000Y-53610000D01*
X75610000Y-46390000D02*
X75610000Y-47040000D01*
X75610000Y-53610000D02*
X75610000Y-52960000D01*
X68390000Y-46390000D02*
X68150000Y-46060000D01*
X68630000Y-46060000D01*
X68390000Y-46390000D01*
G36*
X68390000Y-46390000D02*
G01*
X68150000Y-46060000D01*
X68630000Y-46060000D01*
X68390000Y-46390000D01*
G37*
%TD*%
M02*
