%TF.GenerationSoftware,KiCad,Pcbnew,8.0.4*%
%TF.CreationDate,2024-08-04T16:14:02-04:00*%
%TF.ProjectId,board,626f6172-642e-46b6-9963-61645f706362,rev?*%
%TF.SameCoordinates,Original*%
%TF.FileFunction,Soldermask,Top*%
%TF.FilePolarity,Negative*%
%FSLAX46Y46*%
G04 Gerber Fmt 4.6, Leading zero omitted, Abs format (unit mm)*
G04 Created by KiCad (PCBNEW 8.0.4) date 2024-08-04 16:14:02*
%MOMM*%
%LPD*%
G01*
G04 APERTURE LIST*
G04 Aperture macros list*
%AMRoundRect*
0 Rectangle with rounded corners*
0 $1 Rounding radius*
0 $2 $3 $4 $5 $6 $7 $8 $9 X,Y pos of 4 corners*
0 Add a 4 corners polygon primitive as box body*
4,1,4,$2,$3,$4,$5,$6,$7,$8,$9,$2,$3,0*
0 Add four circle primitives for the rounded corners*
1,1,$1+$1,$2,$3*
1,1,$1+$1,$4,$5*
1,1,$1+$1,$6,$7*
1,1,$1+$1,$8,$9*
0 Add four rect primitives between the rounded corners*
20,1,$1+$1,$2,$3,$4,$5,0*
20,1,$1+$1,$4,$5,$6,$7,0*
20,1,$1+$1,$6,$7,$8,$9,0*
20,1,$1+$1,$8,$9,$2,$3,0*%
G04 Aperture macros list end*
%ADD10RoundRect,0.200000X0.800000X-0.200000X0.800000X0.200000X-0.800000X0.200000X-0.800000X-0.200000X0*%
%ADD11RoundRect,0.140000X-0.170000X0.140000X-0.170000X-0.140000X0.170000X-0.140000X0.170000X0.140000X0*%
%ADD12RoundRect,0.135000X-0.185000X0.135000X-0.185000X-0.135000X0.185000X-0.135000X0.185000X0.135000X0*%
%ADD13C,2.200000*%
%ADD14RoundRect,0.200000X0.200000X0.800000X-0.200000X0.800000X-0.200000X-0.800000X0.200000X-0.800000X0*%
%ADD15R,1.700000X1.700000*%
%ADD16O,1.700000X1.700000*%
%ADD17RoundRect,0.140000X0.140000X0.170000X-0.140000X0.170000X-0.140000X-0.170000X0.140000X-0.170000X0*%
%ADD18RoundRect,0.140000X0.170000X-0.140000X0.170000X0.140000X-0.170000X0.140000X-0.170000X-0.140000X0*%
%ADD19RoundRect,0.135000X-0.135000X-0.185000X0.135000X-0.185000X0.135000X0.185000X-0.135000X0.185000X0*%
%ADD20RoundRect,0.317500X-1.157500X-0.317500X1.157500X-0.317500X1.157500X0.317500X-1.157500X0.317500X0*%
%ADD21RoundRect,0.140000X-0.140000X-0.170000X0.140000X-0.170000X0.140000X0.170000X-0.140000X0.170000X0*%
%ADD22RoundRect,0.375000X-0.625000X-0.375000X0.625000X-0.375000X0.625000X0.375000X-0.625000X0.375000X0*%
%ADD23RoundRect,0.500000X-0.500000X-1.400000X0.500000X-1.400000X0.500000X1.400000X-0.500000X1.400000X0*%
%ADD24RoundRect,0.150000X-0.650000X-0.150000X0.650000X-0.150000X0.650000X0.150000X-0.650000X0.150000X0*%
%ADD25R,1.350000X0.400000*%
%ADD26O,1.550000X0.890000*%
%ADD27R,1.550000X1.200000*%
%ADD28O,0.950000X1.250000*%
%ADD29R,1.550000X1.500000*%
%ADD30R,0.900000X1.800000*%
%ADD31RoundRect,0.050000X-0.387500X-0.050000X0.387500X-0.050000X0.387500X0.050000X-0.387500X0.050000X0*%
%ADD32RoundRect,0.050000X-0.050000X-0.387500X0.050000X-0.387500X0.050000X0.387500X-0.050000X0.387500X0*%
%ADD33R,3.200000X3.200000*%
%ADD34R,1.400000X1.200000*%
%ADD35RoundRect,0.135000X0.135000X0.185000X-0.135000X0.185000X-0.135000X-0.185000X0.135000X-0.185000X0*%
%ADD36RoundRect,0.250000X-0.250000X0.275000X-0.250000X-0.275000X0.250000X-0.275000X0.250000X0.275000X0*%
%ADD37RoundRect,0.250000X-0.275000X0.850000X-0.275000X-0.850000X0.275000X-0.850000X0.275000X0.850000X0*%
G04 APERTURE END LIST*
%TO.C,J1*%
G36*
X61465000Y-62510000D02*
G01*
X59585000Y-62510000D01*
X59585000Y-64600000D01*
X61465000Y-64600000D01*
X61465000Y-62510000D01*
G37*
%TD*%
D10*
%TO.C,SW1*%
X82000000Y-51100000D03*
X82000000Y-46900000D03*
%TD*%
D11*
%TO.C,C5*%
X66500000Y-45020000D03*
X66500000Y-45980000D03*
%TD*%
D12*
%TO.C,R2*%
X73000000Y-40980000D03*
X73000000Y-42000000D03*
%TD*%
D13*
%TO.C,REF\u002A\u002A*%
X45000000Y-29500000D03*
%TD*%
D14*
%TO.C,SW2*%
X81500000Y-56000000D03*
X77300000Y-56000000D03*
%TD*%
D15*
%TO.C,J2*%
X75920000Y-64000000D03*
D16*
X78460000Y-64000000D03*
X81000000Y-64000000D03*
X83540000Y-64000000D03*
%TD*%
D17*
%TO.C,C15*%
X69000000Y-62500000D03*
X68040000Y-62500000D03*
%TD*%
D18*
%TO.C,C16*%
X72000000Y-60480000D03*
X72000000Y-59520000D03*
%TD*%
D19*
%TO.C,R8*%
X65980000Y-53000000D03*
X67000000Y-53000000D03*
%TD*%
D13*
%TO.C,REF\u002A\u002A*%
X92000000Y-29500000D03*
%TD*%
D15*
%TO.C,J3*%
X84000000Y-28500000D03*
D16*
X81460000Y-28500000D03*
X78920000Y-28500000D03*
X76380000Y-28500000D03*
X73840000Y-28500000D03*
X71300000Y-28500000D03*
X68760000Y-28500000D03*
X66220000Y-28500000D03*
X63680000Y-28500000D03*
X61140000Y-28500000D03*
X58600000Y-28500000D03*
X56060000Y-28500000D03*
%TD*%
D20*
%TO.C,U4*%
X45475000Y-44500000D03*
X45475000Y-46500000D03*
X45475000Y-48500000D03*
X45475000Y-50500000D03*
X45475000Y-52500000D03*
X45475000Y-54500000D03*
X45475000Y-56500000D03*
X45475000Y-58500000D03*
X60525000Y-58500000D03*
X60525000Y-56500000D03*
X60525000Y-54500000D03*
X60525000Y-52500000D03*
X60525000Y-50500000D03*
X60525000Y-48500000D03*
X60525000Y-46500000D03*
X60525000Y-44500000D03*
%TD*%
D11*
%TO.C,C9*%
X73500000Y-56540000D03*
X73500000Y-57500000D03*
%TD*%
D18*
%TO.C,C11*%
X74500000Y-44000000D03*
X74500000Y-43040000D03*
%TD*%
D21*
%TO.C,C12*%
X52040000Y-35500000D03*
X53000000Y-35500000D03*
%TD*%
D22*
%TO.C,U3*%
X56850000Y-34700000D03*
X56850000Y-37000000D03*
D23*
X63150000Y-37000000D03*
D22*
X56850000Y-39300000D03*
%TD*%
D17*
%TO.C,C1*%
X78000000Y-46500000D03*
X77040000Y-46500000D03*
%TD*%
D24*
%TO.C,U2*%
X69300000Y-34190000D03*
X69300000Y-35460000D03*
X69300000Y-36730000D03*
X69300000Y-38000000D03*
X76500000Y-38000000D03*
X76500000Y-36730000D03*
X76500000Y-35460000D03*
X76500000Y-34190000D03*
%TD*%
D12*
%TO.C,R1*%
X73990000Y-40980000D03*
X73990000Y-42000000D03*
%TD*%
D13*
%TO.C,REF\u002A\u002A*%
X45000000Y-63000000D03*
%TD*%
D19*
%TO.C,R7*%
X70980000Y-62500000D03*
X72000000Y-62500000D03*
%TD*%
D25*
%TO.C,J4*%
X46200000Y-35600000D03*
X46200000Y-36250000D03*
X46200000Y-36900000D03*
X46200000Y-37550000D03*
X46200000Y-38200000D03*
D26*
X43500000Y-33400000D03*
D27*
X43500000Y-34000000D03*
D28*
X46200000Y-34400000D03*
D29*
X43500000Y-35900000D03*
X43500000Y-37900000D03*
D28*
X46200000Y-39400000D03*
D27*
X43500000Y-39800000D03*
D26*
X43500000Y-40400000D03*
%TD*%
D30*
%TO.C,U5*%
X94000000Y-32500500D03*
X92900000Y-32500000D03*
X91800000Y-32500000D03*
X90700000Y-32500000D03*
X89600000Y-32500000D03*
X88500000Y-32500000D03*
X87400000Y-32500000D03*
X86300000Y-32500000D03*
X85200000Y-32500000D03*
X84100000Y-32500000D03*
X84100000Y-43128000D03*
X85200000Y-43128000D03*
X86300000Y-43128000D03*
X87400000Y-43128000D03*
X88500000Y-43128000D03*
X89600000Y-43128000D03*
X90700000Y-43128000D03*
X91800000Y-43128000D03*
X92900000Y-43128000D03*
X94000000Y-43128000D03*
%TD*%
D17*
%TO.C,C13*%
X54980000Y-37000000D03*
X54020000Y-37000000D03*
%TD*%
D31*
%TO.C,U1*%
X68562500Y-47400000D03*
X68562500Y-47800000D03*
X68562500Y-48200000D03*
X68562500Y-48600000D03*
X68562500Y-49000000D03*
X68562500Y-49400000D03*
X68562500Y-49800000D03*
X68562500Y-50200000D03*
X68562500Y-50600000D03*
X68562500Y-51000000D03*
X68562500Y-51400000D03*
X68562500Y-51800000D03*
X68562500Y-52200000D03*
X68562500Y-52600000D03*
D32*
X69400000Y-53437500D03*
X69800000Y-53437500D03*
X70200000Y-53437500D03*
X70600000Y-53437500D03*
X71000000Y-53437500D03*
X71400000Y-53437500D03*
X71800000Y-53437500D03*
X72200000Y-53437500D03*
X72600000Y-53437500D03*
X73000000Y-53437500D03*
X73400000Y-53437500D03*
X73800000Y-53437500D03*
X74200000Y-53437500D03*
X74600000Y-53437500D03*
D31*
X75437500Y-52600000D03*
X75437500Y-52200000D03*
X75437500Y-51800000D03*
X75437500Y-51400000D03*
X75437500Y-51000000D03*
X75437500Y-50600000D03*
X75437500Y-50200000D03*
X75437500Y-49800000D03*
X75437500Y-49400000D03*
X75437500Y-49000000D03*
X75437500Y-48600000D03*
X75437500Y-48200000D03*
X75437500Y-47800000D03*
X75437500Y-47400000D03*
D32*
X74600000Y-46562500D03*
X74200000Y-46562500D03*
X73800000Y-46562500D03*
X73400000Y-46562500D03*
X73000000Y-46562500D03*
X72600000Y-46562500D03*
X72200000Y-46562500D03*
X71800000Y-46562500D03*
X71400000Y-46562500D03*
X71000000Y-46562500D03*
X70600000Y-46562500D03*
X70200000Y-46562500D03*
X69800000Y-46562500D03*
X69400000Y-46562500D03*
D33*
X72000000Y-50000000D03*
%TD*%
D21*
%TO.C,C4*%
X65020000Y-50500000D03*
X65980000Y-50500000D03*
%TD*%
D17*
%TO.C,C2*%
X78480000Y-51000000D03*
X77520000Y-51000000D03*
%TD*%
D13*
%TO.C,REF\u002A\u002A*%
X92000000Y-63000000D03*
%TD*%
D19*
%TO.C,R6*%
X84480000Y-47000000D03*
X85500000Y-47000000D03*
%TD*%
D34*
%TO.C,Y1*%
X67800000Y-60700000D03*
X70000000Y-60700000D03*
X70000000Y-59000000D03*
X67800000Y-59000000D03*
%TD*%
D11*
%TO.C,C6*%
X72500000Y-43520000D03*
X72500000Y-44480000D03*
%TD*%
%TO.C,C7*%
X76500000Y-44040000D03*
X76500000Y-45000000D03*
%TD*%
D18*
%TO.C,C8*%
X76000000Y-43000000D03*
X76000000Y-42040000D03*
%TD*%
D35*
%TO.C,R5*%
X85510000Y-48500000D03*
X84490000Y-48500000D03*
%TD*%
D18*
%TO.C,C10*%
X71000000Y-43480000D03*
X71000000Y-42520000D03*
%TD*%
%TO.C,C3*%
X72500000Y-57500000D03*
X72500000Y-56540000D03*
%TD*%
D21*
%TO.C,C14*%
X81020000Y-52500000D03*
X81980000Y-52500000D03*
%TD*%
D36*
%TO.C,J1*%
X60525000Y-61975000D03*
D37*
X62000000Y-63500000D03*
X59050000Y-63500000D03*
%TD*%
M02*
