%TF.GenerationSoftware,KiCad,Pcbnew,8.0.4*%
%TF.CreationDate,2024-08-04T16:14:02-04:00*%
%TF.ProjectId,board,626f6172-642e-46b6-9963-61645f706362,rev?*%
%TF.SameCoordinates,Original*%
%TF.FileFunction,Legend,Top*%
%TF.FilePolarity,Positive*%
%FSLAX46Y46*%
G04 Gerber Fmt 4.6, Leading zero omitted, Abs format (unit mm)*
G04 Created by KiCad (PCBNEW 8.0.4) date 2024-08-04 16:14:02*
%MOMM*%
%LPD*%
G01*
G04 APERTURE LIST*
G04 Aperture macros list*
%AMRoundRect*
0 Rectangle with rounded corners*
0 $1 Rounding radius*
0 $2 $3 $4 $5 $6 $7 $8 $9 X,Y pos of 4 corners*
0 Add a 4 corners polygon primitive as box body*
4,1,4,$2,$3,$4,$5,$6,$7,$8,$9,$2,$3,0*
0 Add four circle primitives for the rounded corners*
1,1,$1+$1,$2,$3*
1,1,$1+$1,$4,$5*
1,1,$1+$1,$6,$7*
1,1,$1+$1,$8,$9*
0 Add four rect primitives between the rounded corners*
20,1,$1+$1,$2,$3,$4,$5,0*
20,1,$1+$1,$4,$5,$6,$7,0*
20,1,$1+$1,$6,$7,$8,$9,0*
20,1,$1+$1,$8,$9,$2,$3,0*%
G04 Aperture macros list end*
%ADD10C,0.150000*%
%ADD11C,0.120000*%
%ADD12C,0.254000*%
%ADD13RoundRect,0.200000X0.800000X-0.200000X0.800000X0.200000X-0.800000X0.200000X-0.800000X-0.200000X0*%
%ADD14RoundRect,0.140000X-0.170000X0.140000X-0.170000X-0.140000X0.170000X-0.140000X0.170000X0.140000X0*%
%ADD15RoundRect,0.135000X-0.185000X0.135000X-0.185000X-0.135000X0.185000X-0.135000X0.185000X0.135000X0*%
%ADD16C,2.200000*%
%ADD17RoundRect,0.200000X0.200000X0.800000X-0.200000X0.800000X-0.200000X-0.800000X0.200000X-0.800000X0*%
%ADD18R,1.700000X1.700000*%
%ADD19O,1.700000X1.700000*%
%ADD20RoundRect,0.140000X0.140000X0.170000X-0.140000X0.170000X-0.140000X-0.170000X0.140000X-0.170000X0*%
%ADD21RoundRect,0.140000X0.170000X-0.140000X0.170000X0.140000X-0.170000X0.140000X-0.170000X-0.140000X0*%
%ADD22RoundRect,0.135000X-0.135000X-0.185000X0.135000X-0.185000X0.135000X0.185000X-0.135000X0.185000X0*%
%ADD23RoundRect,0.317500X-1.157500X-0.317500X1.157500X-0.317500X1.157500X0.317500X-1.157500X0.317500X0*%
%ADD24RoundRect,0.140000X-0.140000X-0.170000X0.140000X-0.170000X0.140000X0.170000X-0.140000X0.170000X0*%
%ADD25RoundRect,0.375000X-0.625000X-0.375000X0.625000X-0.375000X0.625000X0.375000X-0.625000X0.375000X0*%
%ADD26RoundRect,0.500000X-0.500000X-1.400000X0.500000X-1.400000X0.500000X1.400000X-0.500000X1.400000X0*%
%ADD27RoundRect,0.150000X-0.650000X-0.150000X0.650000X-0.150000X0.650000X0.150000X-0.650000X0.150000X0*%
%ADD28R,1.350000X0.400000*%
%ADD29O,1.550000X0.890000*%
%ADD30R,1.550000X1.200000*%
%ADD31O,0.950000X1.250000*%
%ADD32R,1.550000X1.500000*%
%ADD33R,0.900000X1.800000*%
%ADD34RoundRect,0.050000X-0.387500X-0.050000X0.387500X-0.050000X0.387500X0.050000X-0.387500X0.050000X0*%
%ADD35RoundRect,0.050000X-0.050000X-0.387500X0.050000X-0.387500X0.050000X0.387500X-0.050000X0.387500X0*%
%ADD36R,3.200000X3.200000*%
%ADD37R,1.400000X1.200000*%
%ADD38RoundRect,0.135000X0.135000X0.185000X-0.135000X0.185000X-0.135000X-0.185000X0.135000X-0.185000X0*%
%ADD39RoundRect,0.250000X-0.250000X0.275000X-0.250000X-0.275000X0.250000X-0.275000X0.250000X0.275000X0*%
%ADD40RoundRect,0.250000X-0.275000X0.850000X-0.275000X-0.850000X0.275000X-0.850000X0.275000X0.850000X0*%
G04 APERTURE END LIST*
D10*
X72604819Y-64333333D02*
X73319104Y-64333333D01*
X73319104Y-64333333D02*
X73461961Y-64380952D01*
X73461961Y-64380952D02*
X73557200Y-64476190D01*
X73557200Y-64476190D02*
X73604819Y-64619047D01*
X73604819Y-64619047D02*
X73604819Y-64714285D01*
X72700057Y-63904761D02*
X72652438Y-63857142D01*
X72652438Y-63857142D02*
X72604819Y-63761904D01*
X72604819Y-63761904D02*
X72604819Y-63523809D01*
X72604819Y-63523809D02*
X72652438Y-63428571D01*
X72652438Y-63428571D02*
X72700057Y-63380952D01*
X72700057Y-63380952D02*
X72795295Y-63333333D01*
X72795295Y-63333333D02*
X72890533Y-63333333D01*
X72890533Y-63333333D02*
X73033390Y-63380952D01*
X73033390Y-63380952D02*
X73604819Y-63952380D01*
X73604819Y-63952380D02*
X73604819Y-63333333D01*
X86224819Y-28833333D02*
X86939104Y-28833333D01*
X86939104Y-28833333D02*
X87081961Y-28880952D01*
X87081961Y-28880952D02*
X87177200Y-28976190D01*
X87177200Y-28976190D02*
X87224819Y-29119047D01*
X87224819Y-29119047D02*
X87224819Y-29214285D01*
X86224819Y-28452380D02*
X86224819Y-27833333D01*
X86224819Y-27833333D02*
X86605771Y-28166666D01*
X86605771Y-28166666D02*
X86605771Y-28023809D01*
X86605771Y-28023809D02*
X86653390Y-27928571D01*
X86653390Y-27928571D02*
X86701009Y-27880952D01*
X86701009Y-27880952D02*
X86796247Y-27833333D01*
X86796247Y-27833333D02*
X87034342Y-27833333D01*
X87034342Y-27833333D02*
X87129580Y-27880952D01*
X87129580Y-27880952D02*
X87177200Y-27928571D01*
X87177200Y-27928571D02*
X87224819Y-28023809D01*
X87224819Y-28023809D02*
X87224819Y-28309523D01*
X87224819Y-28309523D02*
X87177200Y-28404761D01*
X87177200Y-28404761D02*
X87129580Y-28452380D01*
X52238095Y-41754819D02*
X52238095Y-42564342D01*
X52238095Y-42564342D02*
X52285714Y-42659580D01*
X52285714Y-42659580D02*
X52333333Y-42707200D01*
X52333333Y-42707200D02*
X52428571Y-42754819D01*
X52428571Y-42754819D02*
X52619047Y-42754819D01*
X52619047Y-42754819D02*
X52714285Y-42707200D01*
X52714285Y-42707200D02*
X52761904Y-42659580D01*
X52761904Y-42659580D02*
X52809523Y-42564342D01*
X52809523Y-42564342D02*
X52809523Y-41754819D01*
X53714285Y-42088152D02*
X53714285Y-42754819D01*
X53476190Y-41707200D02*
X53238095Y-42421485D01*
X53238095Y-42421485D02*
X53857142Y-42421485D01*
X59238095Y-31954819D02*
X59238095Y-32764342D01*
X59238095Y-32764342D02*
X59285714Y-32859580D01*
X59285714Y-32859580D02*
X59333333Y-32907200D01*
X59333333Y-32907200D02*
X59428571Y-32954819D01*
X59428571Y-32954819D02*
X59619047Y-32954819D01*
X59619047Y-32954819D02*
X59714285Y-32907200D01*
X59714285Y-32907200D02*
X59761904Y-32859580D01*
X59761904Y-32859580D02*
X59809523Y-32764342D01*
X59809523Y-32764342D02*
X59809523Y-31954819D01*
X60190476Y-31954819D02*
X60809523Y-31954819D01*
X60809523Y-31954819D02*
X60476190Y-32335771D01*
X60476190Y-32335771D02*
X60619047Y-32335771D01*
X60619047Y-32335771D02*
X60714285Y-32383390D01*
X60714285Y-32383390D02*
X60761904Y-32431009D01*
X60761904Y-32431009D02*
X60809523Y-32526247D01*
X60809523Y-32526247D02*
X60809523Y-32764342D01*
X60809523Y-32764342D02*
X60761904Y-32859580D01*
X60761904Y-32859580D02*
X60714285Y-32907200D01*
X60714285Y-32907200D02*
X60619047Y-32954819D01*
X60619047Y-32954819D02*
X60333333Y-32954819D01*
X60333333Y-32954819D02*
X60238095Y-32907200D01*
X60238095Y-32907200D02*
X60190476Y-32859580D01*
X72138095Y-31989819D02*
X72138095Y-32799342D01*
X72138095Y-32799342D02*
X72185714Y-32894580D01*
X72185714Y-32894580D02*
X72233333Y-32942200D01*
X72233333Y-32942200D02*
X72328571Y-32989819D01*
X72328571Y-32989819D02*
X72519047Y-32989819D01*
X72519047Y-32989819D02*
X72614285Y-32942200D01*
X72614285Y-32942200D02*
X72661904Y-32894580D01*
X72661904Y-32894580D02*
X72709523Y-32799342D01*
X72709523Y-32799342D02*
X72709523Y-31989819D01*
X73138095Y-32085057D02*
X73185714Y-32037438D01*
X73185714Y-32037438D02*
X73280952Y-31989819D01*
X73280952Y-31989819D02*
X73519047Y-31989819D01*
X73519047Y-31989819D02*
X73614285Y-32037438D01*
X73614285Y-32037438D02*
X73661904Y-32085057D01*
X73661904Y-32085057D02*
X73709523Y-32180295D01*
X73709523Y-32180295D02*
X73709523Y-32275533D01*
X73709523Y-32275533D02*
X73661904Y-32418390D01*
X73661904Y-32418390D02*
X73090476Y-32989819D01*
X73090476Y-32989819D02*
X73709523Y-32989819D01*
X47754819Y-37233333D02*
X48469104Y-37233333D01*
X48469104Y-37233333D02*
X48611961Y-37280952D01*
X48611961Y-37280952D02*
X48707200Y-37376190D01*
X48707200Y-37376190D02*
X48754819Y-37519047D01*
X48754819Y-37519047D02*
X48754819Y-37614285D01*
X48088152Y-36328571D02*
X48754819Y-36328571D01*
X47707200Y-36566666D02*
X48421485Y-36804761D01*
X48421485Y-36804761D02*
X48421485Y-36185714D01*
X87738095Y-29954819D02*
X87738095Y-30764342D01*
X87738095Y-30764342D02*
X87785714Y-30859580D01*
X87785714Y-30859580D02*
X87833333Y-30907200D01*
X87833333Y-30907200D02*
X87928571Y-30954819D01*
X87928571Y-30954819D02*
X88119047Y-30954819D01*
X88119047Y-30954819D02*
X88214285Y-30907200D01*
X88214285Y-30907200D02*
X88261904Y-30859580D01*
X88261904Y-30859580D02*
X88309523Y-30764342D01*
X88309523Y-30764342D02*
X88309523Y-29954819D01*
X89261904Y-29954819D02*
X88785714Y-29954819D01*
X88785714Y-29954819D02*
X88738095Y-30431009D01*
X88738095Y-30431009D02*
X88785714Y-30383390D01*
X88785714Y-30383390D02*
X88880952Y-30335771D01*
X88880952Y-30335771D02*
X89119047Y-30335771D01*
X89119047Y-30335771D02*
X89214285Y-30383390D01*
X89214285Y-30383390D02*
X89261904Y-30431009D01*
X89261904Y-30431009D02*
X89309523Y-30526247D01*
X89309523Y-30526247D02*
X89309523Y-30764342D01*
X89309523Y-30764342D02*
X89261904Y-30859580D01*
X89261904Y-30859580D02*
X89214285Y-30907200D01*
X89214285Y-30907200D02*
X89119047Y-30954819D01*
X89119047Y-30954819D02*
X88880952Y-30954819D01*
X88880952Y-30954819D02*
X88785714Y-30907200D01*
X88785714Y-30907200D02*
X88738095Y-30859580D01*
X77238095Y-43454819D02*
X77238095Y-44264342D01*
X77238095Y-44264342D02*
X77285714Y-44359580D01*
X77285714Y-44359580D02*
X77333333Y-44407200D01*
X77333333Y-44407200D02*
X77428571Y-44454819D01*
X77428571Y-44454819D02*
X77619047Y-44454819D01*
X77619047Y-44454819D02*
X77714285Y-44407200D01*
X77714285Y-44407200D02*
X77761904Y-44359580D01*
X77761904Y-44359580D02*
X77809523Y-44264342D01*
X77809523Y-44264342D02*
X77809523Y-43454819D01*
X78809523Y-44454819D02*
X78238095Y-44454819D01*
X78523809Y-44454819D02*
X78523809Y-43454819D01*
X78523809Y-43454819D02*
X78428571Y-43597676D01*
X78428571Y-43597676D02*
X78333333Y-43692914D01*
X78333333Y-43692914D02*
X78238095Y-43740533D01*
X68423809Y-57378628D02*
X68423809Y-57854819D01*
X68090476Y-56854819D02*
X68423809Y-57378628D01*
X68423809Y-57378628D02*
X68757142Y-56854819D01*
X69614285Y-57854819D02*
X69042857Y-57854819D01*
X69328571Y-57854819D02*
X69328571Y-56854819D01*
X69328571Y-56854819D02*
X69233333Y-56997676D01*
X69233333Y-56997676D02*
X69138095Y-57092914D01*
X69138095Y-57092914D02*
X69042857Y-57140533D01*
X63179819Y-62833333D02*
X63894104Y-62833333D01*
X63894104Y-62833333D02*
X64036961Y-62880952D01*
X64036961Y-62880952D02*
X64132200Y-62976190D01*
X64132200Y-62976190D02*
X64179819Y-63119047D01*
X64179819Y-63119047D02*
X64179819Y-63214285D01*
X64179819Y-61833333D02*
X64179819Y-62404761D01*
X64179819Y-62119047D02*
X63179819Y-62119047D01*
X63179819Y-62119047D02*
X63322676Y-62214285D01*
X63322676Y-62214285D02*
X63417914Y-62309523D01*
X63417914Y-62309523D02*
X63465533Y-62404761D01*
D11*
%TO.C,SW1*%
X80430000Y-46930000D02*
X80730000Y-46930000D01*
X80430000Y-51070000D02*
X80430000Y-46930000D01*
X80730000Y-51070000D02*
X80430000Y-51070000D01*
X83270000Y-46930000D02*
X83570000Y-46930000D01*
X83570000Y-46930000D02*
X83570000Y-51070000D01*
X83570000Y-51070000D02*
X83270000Y-51070000D01*
%TO.C,C5*%
X66140000Y-45392164D02*
X66140000Y-45607836D01*
X66860000Y-45392164D02*
X66860000Y-45607836D01*
%TO.C,R2*%
X72620000Y-41336359D02*
X72620000Y-41643641D01*
X73380000Y-41336359D02*
X73380000Y-41643641D01*
%TO.C,SW2*%
X77330000Y-54430000D02*
X81470000Y-54430000D01*
X77330000Y-54730000D02*
X77330000Y-54430000D01*
X77330000Y-57570000D02*
X77330000Y-57270000D01*
X81470000Y-54430000D02*
X81470000Y-54730000D01*
X81470000Y-57270000D02*
X81470000Y-57570000D01*
X81470000Y-57570000D02*
X77330000Y-57570000D01*
%TO.C,J2*%
X74590000Y-62670000D02*
X75920000Y-62670000D01*
X74590000Y-64000000D02*
X74590000Y-62670000D01*
X77190000Y-62670000D02*
X84870000Y-62670000D01*
X77190000Y-65330000D02*
X77190000Y-62670000D01*
X77190000Y-65330000D02*
X84870000Y-65330000D01*
X84870000Y-65330000D02*
X84870000Y-62670000D01*
%TO.C,C15*%
X68627836Y-62140000D02*
X68412164Y-62140000D01*
X68627836Y-62860000D02*
X68412164Y-62860000D01*
%TO.C,C16*%
X71640000Y-60107836D02*
X71640000Y-59892164D01*
X72360000Y-60107836D02*
X72360000Y-59892164D01*
%TO.C,R8*%
X66336359Y-52620000D02*
X66643641Y-52620000D01*
X66336359Y-53380000D02*
X66643641Y-53380000D01*
%TO.C,J3*%
X54730000Y-27170000D02*
X54730000Y-29830000D01*
X82730000Y-27170000D02*
X54730000Y-27170000D01*
X82730000Y-27170000D02*
X82730000Y-29830000D01*
X82730000Y-29830000D02*
X54730000Y-29830000D01*
X85330000Y-28500000D02*
X85330000Y-29830000D01*
X85330000Y-29830000D02*
X84000000Y-29830000D01*
%TO.C,U4*%
X44900000Y-43400000D02*
X61100000Y-43400000D01*
X44900000Y-59200000D02*
X44900000Y-59600000D01*
X44900000Y-59600000D02*
X61100000Y-59600000D01*
X61100000Y-43400000D02*
X61100000Y-43800000D01*
X61100000Y-59600000D02*
X61100000Y-59200000D01*
X44400000Y-43600000D02*
X44160000Y-43264000D01*
X44640000Y-43264000D01*
X44400000Y-43600000D01*
G36*
X44400000Y-43600000D02*
G01*
X44160000Y-43264000D01*
X44640000Y-43264000D01*
X44400000Y-43600000D01*
G37*
%TO.C,C9*%
X73140000Y-56912164D02*
X73140000Y-57127836D01*
X73860000Y-56912164D02*
X73860000Y-57127836D01*
%TO.C,C11*%
X74140000Y-43627836D02*
X74140000Y-43412164D01*
X74860000Y-43627836D02*
X74860000Y-43412164D01*
%TO.C,C12*%
X52412164Y-35140000D02*
X52627836Y-35140000D01*
X52412164Y-35860000D02*
X52627836Y-35860000D01*
%TO.C,U3*%
X58150000Y-33590000D02*
X61910000Y-33590000D01*
X58150000Y-40410000D02*
X61910000Y-40410000D01*
X61910000Y-33590000D02*
X61910000Y-34850000D01*
X61910000Y-40410000D02*
X61910000Y-39150000D01*
X56870000Y-33690000D02*
X56630000Y-33360000D01*
X57110000Y-33360000D01*
X56870000Y-33690000D01*
G36*
X56870000Y-33690000D02*
G01*
X56630000Y-33360000D01*
X57110000Y-33360000D01*
X56870000Y-33690000D01*
G37*
%TO.C,C1*%
X77627836Y-46140000D02*
X77412164Y-46140000D01*
X77627836Y-46860000D02*
X77412164Y-46860000D01*
%TO.C,U2*%
X70175000Y-33370000D02*
X70175000Y-33630000D01*
X70175000Y-38820000D02*
X70175000Y-38560000D01*
X72900000Y-33370000D02*
X70175000Y-33370000D01*
X72900000Y-33370000D02*
X75625000Y-33370000D01*
X72900000Y-38820000D02*
X70175000Y-38820000D01*
X72900000Y-38820000D02*
X75625000Y-38820000D01*
X75625000Y-33370000D02*
X75625000Y-33630000D01*
X75625000Y-38820000D02*
X75625000Y-38560000D01*
X69392500Y-33630000D02*
X69152500Y-33300000D01*
X69632500Y-33300000D01*
X69392500Y-33630000D01*
G36*
X69392500Y-33630000D02*
G01*
X69152500Y-33300000D01*
X69632500Y-33300000D01*
X69392500Y-33630000D01*
G37*
%TO.C,R1*%
X73610000Y-41336359D02*
X73610000Y-41643641D01*
X74370000Y-41336359D02*
X74370000Y-41643641D01*
%TO.C,R7*%
X71336359Y-62120000D02*
X71643641Y-62120000D01*
X71336359Y-62880000D02*
X71643641Y-62880000D01*
%TO.C,J4*%
X42110000Y-33140000D02*
X42510000Y-33140000D01*
X42510000Y-40660000D02*
X42110000Y-40660000D01*
X44480000Y-33140000D02*
X46460000Y-33140000D01*
X44480000Y-40660000D02*
X46460000Y-40660000D01*
X46460000Y-33140000D02*
X46460000Y-33560000D01*
X46460000Y-40660000D02*
X46460000Y-40240000D01*
X46690000Y-35140000D02*
X47140000Y-35140000D01*
X47140000Y-35590000D02*
X47140000Y-35140000D01*
D12*
%TO.C,U5*%
X83250000Y-32414000D02*
X83419000Y-32414000D01*
X83250000Y-43314000D02*
X83250000Y-32414000D01*
X83419000Y-43314000D02*
X83250000Y-43314000D01*
X94681000Y-32414000D02*
X97850000Y-32414000D01*
X95450000Y-34114000D02*
X95450000Y-34714000D01*
X95450000Y-34714000D02*
X97150000Y-34714000D01*
X95450000Y-35414000D02*
X95450000Y-36214000D01*
X95450000Y-36214000D02*
X97150000Y-36214000D01*
X95450000Y-37014000D02*
X95450000Y-37914000D01*
X95450000Y-37914000D02*
X97150000Y-37914000D01*
X95450000Y-38714000D02*
X95450000Y-39614000D01*
X95450000Y-39614000D02*
X97150000Y-39614000D01*
X95450000Y-40414000D02*
X95450000Y-41114000D01*
X95450000Y-41114000D02*
X97150000Y-41114000D01*
X97150000Y-32914000D02*
X97150000Y-33514000D01*
X97150000Y-33514000D02*
X94850000Y-33514000D01*
X97150000Y-33514000D02*
X97150000Y-34114000D01*
X97150000Y-34114000D02*
X95450000Y-34114000D01*
X97150000Y-34714000D02*
X97150000Y-35414000D01*
X97150000Y-35414000D02*
X95450000Y-35414000D01*
X97150000Y-36214000D02*
X97150000Y-37014000D01*
X97150000Y-37014000D02*
X95450000Y-37014000D01*
X97150000Y-37914000D02*
X97150000Y-38714000D01*
X97150000Y-38714000D02*
X95450000Y-38714000D01*
X97150000Y-39614000D02*
X97150000Y-40414000D01*
X97150000Y-40414000D02*
X95450000Y-40414000D01*
X97150000Y-41114000D02*
X97150000Y-42614000D01*
X97150000Y-41914000D02*
X94750000Y-41914000D01*
X97150000Y-41972500D02*
X97150000Y-41914000D01*
X97850000Y-32414000D02*
X97850000Y-43314000D01*
X97850000Y-43314000D02*
X94681000Y-43314000D01*
X95466000Y-31214500D02*
G75*
G02*
X94834000Y-31214500I-316000J0D01*
G01*
X94834000Y-31214500D02*
G75*
G02*
X95466000Y-31214500I316000J0D01*
G01*
D11*
%TO.C,C13*%
X54607836Y-36640000D02*
X54392164Y-36640000D01*
X54607836Y-37360000D02*
X54392164Y-37360000D01*
%TO.C,U1*%
X68390000Y-47040000D02*
X68390000Y-46630000D01*
X68390000Y-53610000D02*
X68390000Y-52960000D01*
X69040000Y-46390000D02*
X68690000Y-46390000D01*
X69040000Y-53610000D02*
X68390000Y-53610000D01*
X74960000Y-46390000D02*
X75610000Y-46390000D01*
X74960000Y-53610000D02*
X75610000Y-53610000D01*
X75610000Y-46390000D02*
X75610000Y-47040000D01*
X75610000Y-53610000D02*
X75610000Y-52960000D01*
X68390000Y-46390000D02*
X68150000Y-46060000D01*
X68630000Y-46060000D01*
X68390000Y-46390000D01*
G36*
X68390000Y-46390000D02*
G01*
X68150000Y-46060000D01*
X68630000Y-46060000D01*
X68390000Y-46390000D01*
G37*
%TO.C,C4*%
X65392164Y-50140000D02*
X65607836Y-50140000D01*
X65392164Y-50860000D02*
X65607836Y-50860000D01*
%TO.C,C2*%
X78107836Y-50640000D02*
X77892164Y-50640000D01*
X78107836Y-51360000D02*
X77892164Y-51360000D01*
%TO.C,R6*%
X84836359Y-46620000D02*
X85143641Y-46620000D01*
X84836359Y-47380000D02*
X85143641Y-47380000D01*
%TO.C,Y1*%
X66900000Y-58200000D02*
X66900000Y-61500000D01*
X66900000Y-61500000D02*
X70900000Y-61500000D01*
%TO.C,C6*%
X72140000Y-43892164D02*
X72140000Y-44107836D01*
X72860000Y-43892164D02*
X72860000Y-44107836D01*
%TO.C,C7*%
X76140000Y-44412164D02*
X76140000Y-44627836D01*
X76860000Y-44412164D02*
X76860000Y-44627836D01*
%TO.C,C8*%
X75640000Y-42627836D02*
X75640000Y-42412164D01*
X76360000Y-42627836D02*
X76360000Y-42412164D01*
%TO.C,R5*%
X85153641Y-48120000D02*
X84846359Y-48120000D01*
X85153641Y-48880000D02*
X84846359Y-48880000D01*
%TO.C,C10*%
X70640000Y-43107836D02*
X70640000Y-42892164D01*
X71360000Y-43107836D02*
X71360000Y-42892164D01*
%TO.C,C3*%
X72140000Y-57127836D02*
X72140000Y-56912164D01*
X72860000Y-57127836D02*
X72860000Y-56912164D01*
%TO.C,C14*%
X81392164Y-52140000D02*
X81607836Y-52140000D01*
X81392164Y-52860000D02*
X81607836Y-52860000D01*
%TO.C,J1*%
X59125000Y-62140000D02*
X59765000Y-62140000D01*
X61285000Y-62140000D02*
X61285000Y-61510000D01*
X61875000Y-64860000D02*
X59175000Y-64860000D01*
X61925000Y-62140000D02*
X61285000Y-62140000D01*
%TD*%
%LPC*%
%TO.C,J1*%
G36*
X61465000Y-62510000D02*
G01*
X59585000Y-62510000D01*
X59585000Y-64600000D01*
X61465000Y-64600000D01*
X61465000Y-62510000D01*
G37*
%TD*%
D13*
%TO.C,SW1*%
X82000000Y-51100000D03*
X82000000Y-46900000D03*
%TD*%
D14*
%TO.C,C5*%
X66500000Y-45020000D03*
X66500000Y-45980000D03*
%TD*%
D15*
%TO.C,R2*%
X73000000Y-40980000D03*
X73000000Y-42000000D03*
%TD*%
D16*
%TO.C,REF\u002A\u002A*%
X45000000Y-29500000D03*
%TD*%
D17*
%TO.C,SW2*%
X81500000Y-56000000D03*
X77300000Y-56000000D03*
%TD*%
D18*
%TO.C,J2*%
X75920000Y-64000000D03*
D19*
X78460000Y-64000000D03*
X81000000Y-64000000D03*
X83540000Y-64000000D03*
%TD*%
D20*
%TO.C,C15*%
X69000000Y-62500000D03*
X68040000Y-62500000D03*
%TD*%
D21*
%TO.C,C16*%
X72000000Y-60480000D03*
X72000000Y-59520000D03*
%TD*%
D22*
%TO.C,R8*%
X65980000Y-53000000D03*
X67000000Y-53000000D03*
%TD*%
D16*
%TO.C,REF\u002A\u002A*%
X92000000Y-29500000D03*
%TD*%
D18*
%TO.C,J3*%
X84000000Y-28500000D03*
D19*
X81460000Y-28500000D03*
X78920000Y-28500000D03*
X76380000Y-28500000D03*
X73840000Y-28500000D03*
X71300000Y-28500000D03*
X68760000Y-28500000D03*
X66220000Y-28500000D03*
X63680000Y-28500000D03*
X61140000Y-28500000D03*
X58600000Y-28500000D03*
X56060000Y-28500000D03*
%TD*%
D23*
%TO.C,U4*%
X45475000Y-44500000D03*
X45475000Y-46500000D03*
X45475000Y-48500000D03*
X45475000Y-50500000D03*
X45475000Y-52500000D03*
X45475000Y-54500000D03*
X45475000Y-56500000D03*
X45475000Y-58500000D03*
X60525000Y-58500000D03*
X60525000Y-56500000D03*
X60525000Y-54500000D03*
X60525000Y-52500000D03*
X60525000Y-50500000D03*
X60525000Y-48500000D03*
X60525000Y-46500000D03*
X60525000Y-44500000D03*
%TD*%
D14*
%TO.C,C9*%
X73500000Y-56540000D03*
X73500000Y-57500000D03*
%TD*%
D21*
%TO.C,C11*%
X74500000Y-44000000D03*
X74500000Y-43040000D03*
%TD*%
D24*
%TO.C,C12*%
X52040000Y-35500000D03*
X53000000Y-35500000D03*
%TD*%
D25*
%TO.C,U3*%
X56850000Y-34700000D03*
X56850000Y-37000000D03*
D26*
X63150000Y-37000000D03*
D25*
X56850000Y-39300000D03*
%TD*%
D20*
%TO.C,C1*%
X78000000Y-46500000D03*
X77040000Y-46500000D03*
%TD*%
D27*
%TO.C,U2*%
X69300000Y-34190000D03*
X69300000Y-35460000D03*
X69300000Y-36730000D03*
X69300000Y-38000000D03*
X76500000Y-38000000D03*
X76500000Y-36730000D03*
X76500000Y-35460000D03*
X76500000Y-34190000D03*
%TD*%
D15*
%TO.C,R1*%
X73990000Y-40980000D03*
X73990000Y-42000000D03*
%TD*%
D16*
%TO.C,REF\u002A\u002A*%
X45000000Y-63000000D03*
%TD*%
D22*
%TO.C,R7*%
X70980000Y-62500000D03*
X72000000Y-62500000D03*
%TD*%
D28*
%TO.C,J4*%
X46200000Y-35600000D03*
X46200000Y-36250000D03*
X46200000Y-36900000D03*
X46200000Y-37550000D03*
X46200000Y-38200000D03*
D29*
X43500000Y-33400000D03*
D30*
X43500000Y-34000000D03*
D31*
X46200000Y-34400000D03*
D32*
X43500000Y-35900000D03*
X43500000Y-37900000D03*
D31*
X46200000Y-39400000D03*
D30*
X43500000Y-39800000D03*
D29*
X43500000Y-40400000D03*
%TD*%
D33*
%TO.C,U5*%
X94000000Y-32500500D03*
X92900000Y-32500000D03*
X91800000Y-32500000D03*
X90700000Y-32500000D03*
X89600000Y-32500000D03*
X88500000Y-32500000D03*
X87400000Y-32500000D03*
X86300000Y-32500000D03*
X85200000Y-32500000D03*
X84100000Y-32500000D03*
X84100000Y-43128000D03*
X85200000Y-43128000D03*
X86300000Y-43128000D03*
X87400000Y-43128000D03*
X88500000Y-43128000D03*
X89600000Y-43128000D03*
X90700000Y-43128000D03*
X91800000Y-43128000D03*
X92900000Y-43128000D03*
X94000000Y-43128000D03*
%TD*%
D20*
%TO.C,C13*%
X54980000Y-37000000D03*
X54020000Y-37000000D03*
%TD*%
D34*
%TO.C,U1*%
X68562500Y-47400000D03*
X68562500Y-47800000D03*
X68562500Y-48200000D03*
X68562500Y-48600000D03*
X68562500Y-49000000D03*
X68562500Y-49400000D03*
X68562500Y-49800000D03*
X68562500Y-50200000D03*
X68562500Y-50600000D03*
X68562500Y-51000000D03*
X68562500Y-51400000D03*
X68562500Y-51800000D03*
X68562500Y-52200000D03*
X68562500Y-52600000D03*
D35*
X69400000Y-53437500D03*
X69800000Y-53437500D03*
X70200000Y-53437500D03*
X70600000Y-53437500D03*
X71000000Y-53437500D03*
X71400000Y-53437500D03*
X71800000Y-53437500D03*
X72200000Y-53437500D03*
X72600000Y-53437500D03*
X73000000Y-53437500D03*
X73400000Y-53437500D03*
X73800000Y-53437500D03*
X74200000Y-53437500D03*
X74600000Y-53437500D03*
D34*
X75437500Y-52600000D03*
X75437500Y-52200000D03*
X75437500Y-51800000D03*
X75437500Y-51400000D03*
X75437500Y-51000000D03*
X75437500Y-50600000D03*
X75437500Y-50200000D03*
X75437500Y-49800000D03*
X75437500Y-49400000D03*
X75437500Y-49000000D03*
X75437500Y-48600000D03*
X75437500Y-48200000D03*
X75437500Y-47800000D03*
X75437500Y-47400000D03*
D35*
X74600000Y-46562500D03*
X74200000Y-46562500D03*
X73800000Y-46562500D03*
X73400000Y-46562500D03*
X73000000Y-46562500D03*
X72600000Y-46562500D03*
X72200000Y-46562500D03*
X71800000Y-46562500D03*
X71400000Y-46562500D03*
X71000000Y-46562500D03*
X70600000Y-46562500D03*
X70200000Y-46562500D03*
X69800000Y-46562500D03*
X69400000Y-46562500D03*
D36*
X72000000Y-50000000D03*
%TD*%
D24*
%TO.C,C4*%
X65020000Y-50500000D03*
X65980000Y-50500000D03*
%TD*%
D20*
%TO.C,C2*%
X78480000Y-51000000D03*
X77520000Y-51000000D03*
%TD*%
D16*
%TO.C,REF\u002A\u002A*%
X92000000Y-63000000D03*
%TD*%
D22*
%TO.C,R6*%
X84480000Y-47000000D03*
X85500000Y-47000000D03*
%TD*%
D37*
%TO.C,Y1*%
X67800000Y-60700000D03*
X70000000Y-60700000D03*
X70000000Y-59000000D03*
X67800000Y-59000000D03*
%TD*%
D14*
%TO.C,C6*%
X72500000Y-43520000D03*
X72500000Y-44480000D03*
%TD*%
%TO.C,C7*%
X76500000Y-44040000D03*
X76500000Y-45000000D03*
%TD*%
D21*
%TO.C,C8*%
X76000000Y-43000000D03*
X76000000Y-42040000D03*
%TD*%
D38*
%TO.C,R5*%
X85510000Y-48500000D03*
X84490000Y-48500000D03*
%TD*%
D21*
%TO.C,C10*%
X71000000Y-43480000D03*
X71000000Y-42520000D03*
%TD*%
%TO.C,C3*%
X72500000Y-57500000D03*
X72500000Y-56540000D03*
%TD*%
D24*
%TO.C,C14*%
X81020000Y-52500000D03*
X81980000Y-52500000D03*
%TD*%
D39*
%TO.C,J1*%
X60525000Y-61975000D03*
D40*
X62000000Y-63500000D03*
X59050000Y-63500000D03*
%TD*%
%LPD*%
M02*
